<?xml version="1.0" encoding="UTF-8" standalone="no"?>
<!-- Created with Inkscape (http://www.inkscape.org/) -->

<svg
   xmlns:dc="http://purl.org/dc/elements/1.1/"
   xmlns:cc="http://creativecommons.org/ns#"
   xmlns:rdf="http://www.w3.org/1999/02/22-rdf-syntax-ns#"
   xmlns:svg="http://www.w3.org/2000/svg"
   xmlns="http://www.w3.org/2000/svg"
   xmlns:xlink="http://www.w3.org/1999/xlink"
   xmlns:sodipodi="http://sodipodi.sourceforge.net/DTD/sodipodi-0.dtd"
   xmlns:inkscape="http://www.inkscape.org/namespaces/inkscape"
   width="896.7439"
   height="295.03775"
   id="svg2"
   version="1.1"
   inkscape:version="0.47 r22583"
   sodipodi:docname="logo.svg"
   inkscape:export-filename="/home/ouardane/Images/Loisir/meta/spin6_colors.png"
   inkscape:export-xdpi="90"
   inkscape:export-ydpi="90">
  <defs
     id="defs4">
    <linearGradient
       id="linearGradient4493">
      <stop
         style="stop-color:#2d2d2d;stop-opacity:1;"
         offset="0"
         id="stop4495" />
      <stop
         style="stop-color:#ffcc01;stop-opacity:1;"
         offset="1"
         id="stop4497" />
    </linearGradient>
    <linearGradient
       id="linearGradient3670">
      <stop
         style="stop-color:#0d1a2e;stop-opacity:1;"
         offset="0"
         id="stop3672" />
      <stop
         style="stop-color:#2c5aa0;stop-opacity:1;"
         offset="1"
         id="stop3674" />
    </linearGradient>
    <radialGradient
       inkscape:collect="always"
       xlink:href="#linearGradient4493"
       id="radialGradient4509"
       cx="-414.16254"
       cy="286.66656"
       fx="-414.16254"
       fy="286.66656"
       r="45.456863"
       gradientUnits="userSpaceOnUse"
       gradientTransform="matrix(1.2727808,-0.88542341,0.90349502,1.2987585,-146.02619,-452.35328)" />
    <radialGradient
       inkscape:collect="always"
       xlink:href="#linearGradient4493"
       id="radialGradient4517"
       cx="-425.82266"
       cy="296.5564"
       fx="-425.82266"
       fy="296.5564"
       r="60.826233"
       gradientTransform="matrix(1.8188754,1.3703024,-0.99999958,1.3273528,645.25199,486.42728)"
       gradientUnits="userSpaceOnUse" />
  </defs>
  <sodipodi:namedview
     id="base"
     pagecolor="#ffffff"
     bordercolor="#666666"
     borderopacity="1.0"
     inkscape:pageopacity="0.0"
     inkscape:pageshadow="2"
     inkscape:zoom="0.46390395"
     inkscape:cx="173.56705"
     inkscape:cy="192.79297"
     inkscape:document-units="px"
     inkscape:current-layer="layer1"
     showgrid="false"
     showborder="false"
     inkscape:snap-grids="false"
     inkscape:snap-to-guides="false"
     inkscape:window-width="1280"
     inkscape:window-height="726"
     inkscape:window-x="0"
     inkscape:window-y="25"
     inkscape:window-maximized="1" />
  <metadata
     id="metadata7">
    <rdf:RDF>
      <cc:Work
         rdf:about="">
        <dc:format>image/svg+xml</dc:format>
        <dc:type
           rdf:resource="http://purl.org/dc/dcmitype/StillImage" />
        <dc:title />
      </cc:Work>
    </rdf:RDF>
  </metadata>
  <g
     inkscape:label="Calque 1"
     inkscape:groupmode="layer"
     id="layer1"
     transform="translate(561.68138,-139.14768)">
    <g
       id="g4549">
      <path
         transform="matrix(0.83972403,3.1338927,-3.1338927,0.83972403,832.00198,1343.8867)"
         sodipodi:type="arc"
         style="fill:#550000;fill-opacity:1;fill-rule:nonzero;stroke:none"
         id="path3632"
         sodipodi:cx="-414.16254"
         sodipodi:cy="286.66656"
         sodipodi:rx="45.456863"
         sodipodi:ry="45.456863"
         d="m -368.70567,286.66656 c 0,25.10514 -20.35173,45.45687 -45.45687,45.45687 -25.10513,0 -45.45686,-20.35173 -45.45686,-45.45687 0,-25.10513 20.35173,-45.45686 45.45686,-45.45686 25.10514,0 45.45687,20.35173 45.45687,45.45686 z" />
      <path
         sodipodi:nodetypes="cssscs"
         id="path2854"
         d="m -502.90938,203.16527 c 24.29793,-61.12314 129.04122,-56.20434 178.74686,-6.4987 49.70562,49.70562 49.70562,130.29436 -2e-5,180 -24.99587,24.99587 -99.46928,37.53851 -127.94183,16.66853 -18.57813,-13.61749 35.10611,-64.73735 37.94184,-106.66852 -30.92487,-27.94568 -126.17655,10.65558 -88.74685,-83.50131 z"
         style="fill:#ffcc00;fill-opacity:1;fill-rule:nonzero;stroke:none" />
      <path
         style="opacity:1;fill:url(#radialGradient4517);fill-opacity:1;fill-rule:nonzero;stroke:none"
         d="m -386.17275,374.41919 c -15.72822,11.80315 -86.33011,-13.85688 -97.73716,-56.42858 -11.40705,-42.57168 13.85688,-86.3301 56.42858,-97.73715 18.43127,-4.93864 42.3144,-8.57506 55.2206,5.15556 18.98761,20.2005 -4.42565,24.58437 -11.62889,50.50302 -7.01622,25.24578 10.45271,88.94962 -2.28313,98.50715 z"
         id="path3163"
         sodipodi:nodetypes="csssss" />
      <path
         sodipodi:nodetypes="csssss"
         id="path2852"
         d="m -393.50823,363.7494 c -15.72822,11.80315 -86.33011,-13.85688 -97.73716,-56.42858 -11.40705,-42.57168 13.85688,-86.3301 56.42858,-97.73715 18.43127,-4.93864 42.3144,-8.57506 55.2206,5.15556 18.98761,20.2005 -4.42565,24.58437 -11.62889,50.50302 -7.01622,25.24578 10.45271,88.94962 -2.28313,98.50715 z"
         style="fill:#ff6600;fill-opacity:1;fill-rule:nonzero;stroke:none" />
      <path
         transform="matrix(0.25881905,0.96592583,-0.96592583,0.25881905,-27.484938,614.97156)"
         sodipodi:type="arc"
         style="opacity:1;fill:url(#radialGradient4509);fill-opacity:1;fill-rule:nonzero;stroke:none"
         id="path3648"
         sodipodi:cx="-414.16254"
         sodipodi:cy="286.66656"
         sodipodi:rx="45.456863"
         sodipodi:ry="45.456863"
         d="m -368.70567,286.66656 c 0,25.10514 -20.35173,45.45687 -45.45687,45.45687 -25.10513,0 -45.45686,-20.35173 -45.45686,-45.45687 0,-25.10513 20.35173,-45.45686 45.45686,-45.45686 25.10514,0 45.45687,20.35173 45.45687,45.45686 z" />
      <path
         transform="matrix(0.25881905,0.96592583,-0.96592583,0.25881905,-30.070724,612.52207)"
         sodipodi:type="arc"
         style="fill:#0066ff;fill-opacity:1;fill-rule:nonzero;stroke:none"
         id="path3668"
         sodipodi:cx="-414.16254"
         sodipodi:cy="286.66656"
         sodipodi:rx="45.456863"
         sodipodi:ry="45.456863"
         d="m -368.70567,286.66656 c 0,25.10514 -20.35173,45.45687 -45.45687,45.45687 -25.10513,0 -45.45686,-20.35173 -45.45686,-45.45687 0,-25.10513 20.35173,-45.45686 45.45686,-45.45686 25.10514,0 45.45687,20.35173 45.45687,45.45686 z" />
      <path
         sodipodi:nodetypes="ccsc"
         id="path2848"
         d="m -402.39741,330.57451 c -59.63692,8.42945 4.70366,-56.77693 -23.5302,-87.81592 24.24969,-6.49769 49.17537,7.89316 55.67305,32.14285 6.49769,24.2497 -7.89315,49.17538 -32.14285,55.67307 z"
         style="opacity:1;fill:#617fff;fill-opacity:1;fill-rule:nonzero;stroke:none" />
      <path
         d="m -115.78125,209.59375 c -6.50563,1.5e-4 -12.76051,0.83514 -18.75,2.5 -0.0225,0.006 -0.04,0.0255 -0.0625,0.0312 -5.32634,1.368 -10.34416,3.36626 -15.125,5.84375 -1.8362,-1.22191 -3.88514,-2.32977 -6.28125,-3.3125 -0.008,-0.004 -0.0229,0.004 -0.0312,0 -2.77974,-1.16765 -6.12938,-2.17316 -10.125,-3 -4.1584,-0.86019 -9.07152,-1.24986 -14.8125,-1.25 l -51.8125,0 a 3.0586023,3.0586023 0 0 0 -3.0625,3.0625 l 0,69.5625 0,0.0312 -0.78125,70.375 a 3.0586023,3.0586023 0 0 0 3.0625,3.09375 l 41.59375,0 a 3.0586023,3.0586023 0 0 0 3.0625,-3.0625 c -4e-5,-2.7964 0.80221,-4.85495 2.5625,-6.71875 a 3.0586023,3.0586023 0 0 0 0.0625,-0.0625 c 1.74685,-1.9524 3.57971,-2.74999 6.3125,-2.75 2.73265,10e-6 4.5655,0.79754 6.3125,2.75 a 3.0586023,3.0586023 0 0 0 0.125,0.125 c 1.87371,1.87377 2.68744,3.89164 2.6875,6.65625 a 3.0586023,3.0586023 0 0 0 3.125,3.0625 l 44,-0.8125 a 3.0586023,3.0586023 0 0 0 3,-3.0625 c -9e-5,-2.79638 0.77293,-4.62092 2.4375,-6.1875 a 3.0586023,3.0586023 0 0 0 0.0625,-0.0625 c 1.70932,-1.7094 3.62253,-2.46874 6.4375,-2.46875 2.81467,10e-6 4.72786,0.75922 6.4375,2.46875 a 3.0586023,3.0586023 0 0 0 0.125,0.125 c 1.79076,1.59189 2.59364,3.37874 2.59375,6.125 a 3.0586023,3.0586023 0 0 0 3.0625,3.0625 l 52.59375,0 a 3.0586023,3.0586023 0 0 0 3.0625,-3.03125 l 0.78125,-70.40625 a 3.0586023,3.0586023 0 0 0 0,-0.0312 c -1.99e-4,-9.97084 -1.953418,-19.40927 -5.84375,-28.1875 -0.0092,-0.0217 -0.02206,-0.0408 -0.03125,-0.0625 -3.733636,-8.82782 -8.855052,-16.534 -15.375,-23.0625 -0.01032,-0.0105 -0.02092,-0.0207 -0.03125,-0.0312 -6.540963,-6.67132 -14.298485,-11.91534 -23.15625,-15.65625 -0.009,-0.004 -0.02225,0.004 -0.03125,0 -8.778976,-3.7578 -18.21427,-5.6561 -28.1875,-5.65625 z M 33.6875,210 c -9.985077,1.5e-4 -19.463587,1.94958 -28.375,5.84375 -0.00899,0.004 -0.022258,-0.004 -0.03125,0 -8.8677838,3.74501 -16.671822,8.98442 -23.34375,15.65625 a 3.0586023,3.0586023 0 0 0 -0.03125,0.0312 c -6.530341,6.66938 -11.752572,14.46131 -15.625,23.3125 -3.765665,8.78663 -5.656255,18.23521 -5.65625,28.21875 -5e-6,10.11175 1.894655,19.67745 5.65625,28.59375 a 3.0586023,3.0586023 0 0 0 0,0.0312 c 3.872428,8.85134 9.094638,16.64325 15.625,23.3125 a 3.0586023,3.0586023 0 0 0 0.03125,0.0312 c 6.672401,6.67244 14.4824567,11.96697 23.34375,15.84375 a 3.0586023,3.0586023 0 0 0 0.03125,0 c 8.909562,3.75875 18.391323,5.65625 28.375,5.65625 l 70,0 a 3.0586023,3.0586023 0 0 0 3.0625,-3.0625 l 0,-45.40625 A 3.0586023,3.0586023 0 0 0 103.6875,305 c -2.78739,4e-5 -5.12435,-0.85307 -7.4375,-2.71875 -0.0057,-0.005 -0.02554,0.005 -0.03125,0 -1.222643,-1.06232 -1.964482,-2.16817 -2.4375,-3.34375 l 9.90625,0 a 3.0586023,3.0586023 0 0 0 3.0625,-3.03125 l 0.1875,-12.8125 a 3.0586023,3.0586023 0 0 0 0,-0.0312 c -1.6e-4,-9.97085 -1.95337,-19.40926 -5.84375,-28.1875 -0.009,-0.0216 -0.0221,-0.0409 -0.0312,-0.0625 -3.738,-8.8378 -8.946603,-16.62578 -15.59375,-23.28125 -0.01035,-0.0106 -0.02089,-0.0207 -0.03125,-0.0312 -6.53725,-6.66765 -14.264873,-11.91432 -23.125,-15.65625 -0.009,-0.004 -0.02228,0.004 -0.03125,0 C 53.362663,211.94657 43.800261,210.00015 33.6875,210 z m 228.125,0 c -9.98508,1.5e-4 -19.46358,1.94958 -28.375,5.84375 -0.009,0.004 -0.0223,-0.004 -0.0312,0 -8.86778,3.74501 -16.67182,8.98442 -23.34375,15.65625 a 3.0586023,3.0586023 0 0 0 -0.0312,0.0312 c -6.53035,6.66938 -11.75257,14.46131 -15.625,23.3125 -3.76567,8.78663 -5.65625,18.23521 -5.65625,28.21875 0,10.11175 1.89465,19.67745 5.65625,28.59375 a 3.0586023,3.0586023 0 0 0 0,0.0312 c 3.87243,8.85134 9.09463,16.64324 15.625,23.3125 a 3.0586023,3.0586023 0 0 0 0.0312,0.0312 c 6.6724,6.67244 14.48246,11.96697 23.34375,15.84375 a 3.0586023,3.0586023 0 0 0 0.0312,0 c 8.90956,3.75875 18.39132,5.65625 28.375,5.65625 l 69.59375,0 a 3.0586023,3.0586023 0 0 0 3.0625,-3.03125 l 0.59375,-70.40625 a 3.0586023,3.0586023 0 0 0 0,-0.0312 c -1.6e-4,-9.97085 -1.95337,-19.40926 -5.84375,-28.1875 -0.009,-0.0216 -0.0221,-0.0409 -0.0312,-0.0625 -3.738,-8.8378 -8.9466,-16.62578 -15.59375,-23.28125 -0.0104,-0.0106 -0.0209,-0.0207 -0.0312,-0.0312 -6.53725,-6.66765 -14.26488,-11.91432 -23.125,-15.65625 -0.009,-0.004 -0.0223,0.004 -0.0312,0 -8.91859,-3.89718 -18.48099,-5.8436 -28.59375,-5.84375 z m -147.71875,0.59375 a 3.0586023,3.0586023 0 0 0 -3.0625,3.0625 l 0,79 c -1e-5,9.03871 1.668,17.60611 5.03125,25.59375 a 3.0586023,3.0586023 0 0 0 0,0.0312 c 3.34734,7.81051 8.00358,14.65988 13.875,20.53125 5.87136,5.87141 12.72074,10.52766 20.53125,13.875 a 3.0586023,3.0586023 0 0 0 0.0312,0 c 7.98763,3.36324 16.55503,5.03125 25.59375,5.03125 a 3.0586023,3.0586023 0 0 0 3.0625,-3.09375 L 178.75,286.84375 a 3.0586023,3.0586023 0 0 0 -3.0625,-3.03125 l -1.9375,0 0,-0.625 c 2.55232,-0.52812 4.89788,-1.70504 6.8125,-3.5 2.8015,-2.6367 4.37491,-6.20691 4.375,-10.03125 -9e-5,-3.79393 -1.57358,-7.30681 -4.375,-9.8125 -0.0214,-0.0201 -0.041,-0.0426 -0.0625,-0.0625 -1.90256,-1.76139 -4.22633,-2.91525 -6.75,-3.4375 l 0,-42.6875 a 3.0586023,3.0586023 0 0 0 -3.0625,-3.0625 l -56.59375,0 z M 81.6875,267.125 c 2.796334,7e-5 4.717925,0.78059 6.4375,2.5 a 3.0586023,3.0586023 0 0 0 0.0625,0.0625 c 1.834228,1.73249 2.624892,3.61044 2.625,6.375 -1.08e-4,2.76474 -0.813876,4.78258 -2.6875,6.65625 -1.709634,1.70958 -3.62287,2.46881 -6.4375,2.46875 -2.780866,6e-5 -4.820593,-0.76227 -6.65625,-2.46875 -1.70653,-1.83571 -2.468839,-3.87545 -2.46875,-6.65625 -8.9e-5,-2.77859 0.742336,-4.68224 2.40625,-6.375 0.01127,-0.0106 0.01996,-0.0207 0.03125,-0.0312 0.01088,-0.011 0.02029,-0.0203 0.03125,-0.0312 1.845692,-1.71617 3.893455,-2.49993 6.65625,-2.5 z m 167.53125,30.40625 c 2.76453,5e-5 4.64253,0.79072 6.375,2.625 a 3.0586023,3.0586023 0 0 0 0.125,0.125 c 1.83426,1.73245 2.62494,3.61044 2.625,6.375 -6e-5,2.76467 -0.81381,4.78254 -2.6875,6.65625 -1.7195,1.71947 -3.64115,2.50002 -6.4375,2.5 -2.76267,2e-5 -4.8105,-0.78372 -6.65625,-2.5 -1.7163,-1.84578 -2.50004,-3.89361 -2.5,-6.65625 -4e-5,-2.79636 0.78053,-4.71803 2.5,-6.4375 1.87368,-1.87368 3.89156,-2.68745 6.65625,-2.6875 z"
         inkscape:href="#text4366"
         id="path4378"
         style="font-size:89.35980225px;font-style:normal;font-variant:normal;font-weight:bold;font-stretch:normal;text-align:center;line-height:100%;writing-mode:lr-tb;text-anchor:middle;fill:#000000;fill-opacity:1;fill-rule:nonzero;stroke:none;font-family:Impact;-inkscape-font-specification:Impact Bold"
         xlink:href="#text4366"
         inkscape:original="M -115.78125 212.65625 C -122.04803 212.65639 -128.04803 213.46264 -133.78125 215.0625 C -139.51468 216.5293 -144.90218 218.66888 -149.96875 221.46875 C -151.8355 220.00222 -154.25425 218.66888 -157.1875 217.46875 C -159.72091 216.40222 -162.91466 215.45639 -166.78125 214.65625 C -170.64798 213.85639 -175.36881 213.46889 -180.96875 213.46875 L -232.78125 213.46875 L -232.78125 283.0625 L -233.5625 353.46875 L -191.96875 353.46875 C -191.9688 350.00209 -190.82921 347.05626 -188.5625 344.65625 C -186.29589 342.12293 -183.43547 340.87501 -179.96875 340.875 C -176.50215 340.87501 -173.64173 342.12293 -171.375 344.65625 C -168.97507 347.05626 -167.78132 350.00209 -167.78125 353.46875 L -123.78125 352.65625 C -123.78136 349.18959 -122.64178 346.38334 -120.375 344.25 C -118.10845 341.98334 -115.24804 340.87501 -111.78125 340.875 C -108.31471 340.87501 -105.4543 341.98334 -103.1875 344.25 C -100.78764 346.38334 -99.562639 349.18959 -99.5625 352.65625 L -46.96875 352.65625 L -46.1875 282.25 C -46.187692 272.65008 -48.048107 263.65009 -51.78125 255.25 C -55.381433 246.71677 -60.296012 239.32928 -66.5625 233.0625 C -72.829332 226.66263 -80.248075 221.66263 -88.78125 218.0625 C -97.181391 214.46264 -106.18138 212.65639 -115.78125 212.65625 z M 33.6875 213.0625 C 24.087435 213.06264 15.033277 214.92306 6.5 218.65625 C -2.0333726 222.25638 -9.5062818 227.25638 -15.90625 233.65625 C -22.172936 240.05636 -27.172931 247.52927 -30.90625 256.0625 C -34.506257 264.46259 -36.312505 273.46258 -36.3125 283.0625 C -36.312505 292.79589 -34.506257 301.93547 -30.90625 310.46875 C -27.172931 319.00212 -22.172936 326.47503 -15.90625 332.875 C -9.5062818 339.27501 -2.0333726 344.32918 6.5 348.0625 C 15.033277 351.6625 24.087435 353.46875 33.6875 353.46875 L 103.6875 353.46875 L 103.6875 308.0625 C 100.22069 308.06255 97.081112 306.92296 94.28125 304.65625 C 91.481117 302.2563 90.093619 299.34172 90.09375 295.875 L 103.6875 295.875 L 103.875 283.0625 C 103.87485 273.46258 102.01444 264.46259 98.28125 256.0625 C 94.681114 247.52927 89.681119 240.05636 83.28125 233.65625 C 77.014465 227.25638 69.626972 222.25638 61.09375 218.65625 C 52.560323 214.92306 43.420749 213.06264 33.6875 213.0625 z M 261.8125 213.0625 C 252.21243 213.06264 243.15828 214.92306 234.625 218.65625 C 226.09163 222.25638 218.61872 227.25638 212.21875 233.65625 C 205.95206 240.05636 200.95207 247.52927 197.21875 256.0625 C 193.61874 264.46259 191.8125 273.46258 191.8125 283.0625 C 191.8125 292.79589 193.61874 301.93547 197.21875 310.46875 C 200.95207 319.00212 205.95206 326.47503 212.21875 332.875 C 218.61872 339.27501 226.09163 344.32918 234.625 348.0625 C 243.15828 351.6625 252.21243 353.46875 261.8125 353.46875 L 331.40625 353.46875 L 332 283.0625 C 331.99985 273.46258 330.13944 264.46259 326.40625 256.0625 C 322.80611 247.52927 317.80612 240.05636 311.40625 233.65625 C 305.13946 227.25638 297.75197 222.25638 289.21875 218.65625 C 280.68532 214.92306 271.54575 213.06264 261.8125 213.0625 z M 114.09375 213.65625 L 114.09375 292.65625 C 114.09374 301.32297 115.67499 309.46254 118.875 317.0625 C 122.07499 324.5292 126.49373 331.05627 132.09375 336.65625 C 137.69372 342.25626 144.2208 346.67501 151.6875 349.875 C 159.28745 353.075 167.42702 354.65625 176.09375 354.65625 L 175.6875 286.875 L 170.6875 286.875 L 170.6875 280.46875 C 173.7541 280.46882 176.33535 279.46882 178.46875 277.46875 C 180.73535 275.33549 181.87493 272.723 181.875 269.65625 C 181.87493 266.58967 180.73534 264.06259 178.46875 262.0625 C 176.33535 260.06259 173.7541 259.06259 170.6875 259.0625 L 170.6875 213.65625 L 114.09375 213.65625 z M 81.6875 264.0625 C 85.15404 264.06259 88.014454 265.20217 90.28125 267.46875 C 92.681116 269.7355 93.874865 272.59591 93.875 276.0625 C 93.874865 279.52924 92.681116 282.47507 90.28125 284.875 C 88.014454 287.14173 85.15404 288.25007 81.6875 288.25 C 78.220714 288.25007 75.274883 287.14173 72.875 284.875 C 70.608221 282.47507 69.499889 279.52924 69.5 276.0625 C 69.499889 272.59591 70.608221 269.7355 72.875 267.46875 C 75.274883 265.20217 78.220714 264.06259 81.6875 264.0625 z M 249.21875 294.46875 C 252.68535 294.46881 255.54576 295.66256 257.8125 298.0625 C 260.21243 300.32922 261.40618 303.18963 261.40625 306.65625 C 261.40618 310.12296 260.21243 313.06879 257.8125 315.46875 C 255.54576 317.73545 252.68535 318.87503 249.21875 318.875 C 245.75202 318.87503 242.80619 317.73545 240.40625 315.46875 C 238.13953 313.06879 236.99995 310.12296 237 306.65625 C 236.99995 303.18963 238.13953 300.32922 240.40625 298.0625 C 242.80619 295.66256 245.75202 294.46881 249.21875 294.46875 z "
         inkscape:radius="3.0582964"
         sodipodi:type="inkscape:offset" />
      <text
         sodipodi:linespacing="100%"
         id="text4366"
         y="353.46271"
         x="49.314121"
         style="font-size:197.83482361px;font-style:normal;font-variant:normal;font-weight:bold;font-stretch:normal;text-align:center;line-height:100%;writing-mode:lr-tb;text-anchor:middle;fill:#000000;fill-opacity:1;fill-rule:nonzero;stroke:none;font-family:Impact;-inkscape-font-specification:Impact Bold"
         xml:space="preserve"><tspan
           style="font-size:200px;font-style:normal;font-variant:normal;font-weight:normal;font-stretch:normal;text-align:center;line-height:100%;writing-mode:lr-tb;text-anchor:middle;fill:#000000;font-family:Lein Bold;-inkscape-font-specification:'Lein Bold,'"
           y="353.46271"
           x="49.314121"
           id="tspan4368"
           sodipodi:role="line"><tspan
             id="tspan4370"
             style="font-size:200px;font-style:normal;font-variant:normal;font-weight:normal;font-stretch:normal;text-align:center;line-height:100%;writing-mode:lr-tb;text-anchor:middle;fill:#550000;font-family:Lein Bold;-inkscape-font-specification:'Lein Bold,'">M</tspan><tspan
             id="tspan4372"
             style="font-size:200px;font-style:normal;font-variant:normal;font-weight:normal;font-stretch:normal;text-align:center;line-height:100%;writing-mode:lr-tb;text-anchor:middle;fill:#ff6600;font-family:Lein Bold;-inkscape-font-specification:'Lein Bold,'"><tspan
   id="tspan4547"
   style="fill:#ffcc00">E</tspan>T</tspan><tspan
             id="tspan4376"
             style="font-size:200px;font-style:normal;font-variant:normal;font-weight:normal;font-stretch:normal;text-align:center;line-height:100%;writing-mode:lr-tb;text-anchor:middle;fill:#0066ff;font-family:Lein Bold;-inkscape-font-specification:'Lein Bold,'">A</tspan></tspan></text>
      <path
         style="color:#000000;fill:#705f19;fill-opacity:1;fill-rule:nonzero;stroke:none;stroke-width:0;marker:none;visibility:visible;display:inline;overflow:visible;enable-background:accumulate"
         d="m -384.18243,320.91878 c -1.72183,1.3992 -3.47988,2.78048 -5.35326,3.98074 -0.42707,0.41709 -0.13475,1.09689 -0.15404,1.61615 0.0739,0.76012 0.14103,1.61633 0.16246,2.3309 1.83679,-0.96202 3.5556,-2.14969 5.23748,-3.36184 0.22966,-0.21212 0.58855,-0.3657 0.71362,-0.65468 -0.17217,-1.30439 -0.3266,-2.63958 -0.58311,-3.91548 l -0.006,0 -0.0168,0.004 z"
         id="path4535" />
    </g>
    <path
       style="color:#000000;fill:#7f4040;fill-opacity:1;fill-rule:nonzero;stroke:none;stroke-width:1px;marker:none;visibility:visible;display:inline;overflow:visible;enable-background:accumulate"
       d="m 503.95338,165.67728 c -43.56518,-3.25477 -84.94566,-8.32724 -120.14886,-14.72799 -16.62917,-3.02356 -42.04449,-8.56009 -50.12619,-10.9196 l -4.36602,-1.2747 0,-31.8371 0,-31.837095 30.56219,0.01318 c 34.20009,0.01475 37.33021,0.344612 46.61293,4.912159 l 5.42042,2.66711 4.89019,-2.288396 c 16.22188,-7.591131 38.14612,-8.215699 54.51807,-1.553085 21.17727,8.618151 37.04295,27.169303 42.00476,49.114593 1.65641,7.32608 2.31733,18.97715 1.66695,29.38619 l -0.55393,8.86532 -3.53181,-0.13265 c -1.9425,-0.073 -5.06941,-0.24753 -6.9487,-0.38794 z"
       id="path3950"
       transform="translate(-561.68138,139.14768)" />
    <path
       style="color:#000000;fill:#ffda46;fill-opacity:1;fill-rule:nonzero;stroke:none;stroke-width:1px;marker:none;visibility:visible;display:inline;overflow:visible;enable-background:accumulate"
       d="m 550.27123,168.28232 c -12.77232,-0.46264 -19.67338,-1.00133 -20.27614,-1.58272 -3.0188,-2.91183 -5.0002,-23.06308 -3.30249,-33.58707 5.66941,-35.144509 37.61732,-60.734952 73.03077,-58.498043 27.25925,1.721845 51.26151,19.670168 61.06596,45.663703 2.96596,7.86331 4.13755,15.29475 4.13755,26.24445 l 0,9.80422 -6.92869,0 -6.9287,0 0.48334,2.46775 c 0.59794,3.05291 2.53728,5.77004 5.61382,7.86531 l 2.35081,1.60101 -5.76225,0.48709 c -8.2038,0.69348 -80.45937,0.36831 -103.48398,-0.4657 z m 100.02353,-20.79951 c 3.99001,-2.97897 5.14076,-5.3335 5.14076,-10.51833 0,-3.6694 -0.37415,-5.3373 -1.56307,-6.96793 -1.93601,-2.65528 -7.46702,-5.56067 -10.58587,-5.56067 -3.01213,0 -8.62972,2.87623 -10.41587,5.33297 -4.287,5.89651 -1.64472,15.65465 5.06306,18.69826 3.18279,1.44418 9.81574,0.91599 12.36099,-0.9843 z"
       id="path3952"
       transform="translate(-561.68138,139.14768)" />
    <path
       style="color:#000000;fill:#ff7f2a;fill-opacity:1;fill-rule:nonzero;stroke:none;stroke-width:1px;marker:none;visibility:visible;display:inline;overflow:visible;enable-background:accumulate"
       d="m 677.39049,166.49703 c -0.38307,-0.79722 -0.7914,-21.48762 -0.91624,-46.42718 l -0.2252,-44.989055 27.74851,0 27.74852,0 0,22.77927 0,22.779265 1.99847,0 c 2.71492,0 6.90566,2.71125 8.27061,5.35077 3.08711,5.96982 -0.84187,13.55103 -7.68853,14.83547 -2.46899,0.46319 -2.58055,0.62818 -2.58055,3.8165 0,3.30224 0.024,3.33239 2.65758,3.33239 l 2.65758,0 0,7.906 0,7.906 -2.84741,0.45234 c -3.33966,0.53054 -30.98823,2.45345 -45.815,3.18635 -9.65236,0.47713 -10.36185,0.41731 -11.00834,-0.92812 l 0,0 z"
       id="path3954"
       transform="translate(-561.68138,139.14768)" />
    <path
       style="color:#000000;fill:#617fff;fill-opacity:1;fill-rule:nonzero;stroke:none;stroke-width:1px;marker:none;visibility:visible;display:inline;overflow:visible;enable-background:accumulate"
       d="m 755.16732,158.0353 c -1.58478,-7.02944 -1.16163,-23.64244 0.78812,-30.94184 1.80201,-6.74627 6.31844,-16.70943 10.07122,-22.21693 3.57247,-5.242864 11.71451,-13.516477 17.09159,-17.367778 5.96998,-4.275963 16.02422,-8.988927 23.58394,-11.055065 8.48246,-2.318332 25.38156,-2.311515 33.894,0.01367 23.10258,6.3105 41.12918,23.134083 48.80246,45.545581 1.40611,4.10686 2.77209,9.52897 3.0355,12.04913 l 0.47893,4.58211 -6.36105,1.72041 c -17.24626,4.66446 -59.41451,13.06023 -72.42093,14.41913 -3.34096,0.34906 -8.80798,1.1554 -12.14894,1.79186 -4.46814,0.85119 -43.35386,5.82575 -45.53938,5.82575 -0.16013,0 -0.73409,-1.96471 -1.27546,-4.36603 l 0,0 z"
       id="path3956"
       transform="translate(-561.68138,139.14768)" />
  </g>
</svg>
