<?xml version="1.0" encoding="UTF-8" standalone="no"?>
<!-- Created with Inkscape (http://www.inkscape.org/) -->

<svg
   xmlns:dc="http://purl.org/dc/elements/1.1/"
   xmlns:cc="http://creativecommons.org/ns#"
   xmlns:rdf="http://www.w3.org/1999/02/22-rdf-syntax-ns#"
   xmlns:svg="http://www.w3.org/2000/svg"
   xmlns="http://www.w3.org/2000/svg"
   xmlns:xlink="http://www.w3.org/1999/xlink"
   xmlns:sodipodi="http://sodipodi.sourceforge.net/DTD/sodipodi-0.dtd"
   xmlns:inkscape="http://www.inkscape.org/namespaces/inkscape"
   width="444.6795"
   height="136.98015"
   id="svg2"
   version="1.1"
   inkscape:version="0.47 r22583"
   sodipodi:docname="trombone.svg">
  <defs
     id="defs4">
    <linearGradient
       id="linearGradient3698">
      <stop
         style="stop-color:#2d2d2d;stop-opacity:1;"
         offset="0"
         id="stop3700" />
      <stop
         style="stop-color:#ffcc00;stop-opacity:1;"
         offset="1"
         id="stop3702" />
    </linearGradient>
    <inkscape:perspective
       sodipodi:type="inkscape:persp3d"
       inkscape:vp_x="0 : 526.18109 : 1"
       inkscape:vp_y="0 : 1000 : 0"
       inkscape:vp_z="744.09448 : 526.18109 : 1"
       inkscape:persp3d-origin="372.04724 : 350.78739 : 1"
       id="perspective10" />
    <radialGradient
       id="radialGradient2863"
       spreadMethod="pad"
       gradientTransform="matrix(-414.135,0,0,-414.135,-24.416,-20.243)"
       gradientUnits="userSpaceOnUse"
       r="1"
       cy="0"
       cx="0"
       fy="0"
       fx="0">
      <stop
         id="stop2865"
         offset="0"
         style="stop-opacity:1;stop-color:#b11472" />
      <stop
         id="stop2867"
         offset="1"
         style="stop-opacity:1;stop-color:#781d68" />
    </radialGradient>
    <clipPath
       id="clipPath2855"
       clipPathUnits="userSpaceOnUse">
      <path
         id="path2857"
         clip-rule="evenodd"
         d="m 0,0 3476.09,0 0,1520 L 0,1520 0,0 z" />
    </clipPath>
    <inkscape:perspective
       id="perspective2845"
       inkscape:persp3d-origin="0.5 : 0.33333333 : 1"
       inkscape:vp_z="1 : 0.5 : 1"
       inkscape:vp_y="0 : 1000 : 0"
       inkscape:vp_x="0 : 0.5 : 1"
       sodipodi:type="inkscape:persp3d" />
    <clipPath
       id="clipPath2847-1"
       clipPathUnits="userSpaceOnUse">
      <path
         transform="translate(77.781747,33.335034)"
         sodipodi:type="arc"
         style="fill:#2c5aa0;fill-opacity:1;fill-rule:nonzero;stroke:none"
         id="path2849-2"
         sodipodi:cx="-28.789347"
         sodipodi:cy="184.64114"
         sodipodi:rx="377.29196"
         sodipodi:ry="90.913727"
         d="m 348.50261,184.64114 a 377.29196,90.913727 0 1 1 -754.58392,0 377.29196,90.913727 0 1 1 754.58392,0 z" />
    </clipPath>
    <inkscape:perspective
       sodipodi:type="inkscape:persp3d"
       inkscape:vp_x="0 : 0.5 : 1"
       inkscape:vp_y="0 : 1000 : 0"
       inkscape:vp_z="1 : 0.5 : 1"
       inkscape:persp3d-origin="0.5 : 0.33333333 : 1"
       id="perspective2907" />
    <clipPath
       id="clipPath2847"
       clipPathUnits="userSpaceOnUse">
      <path
         transform="translate(77.781747,33.335034)"
         sodipodi:type="arc"
         style="fill:#2c5aa0;fill-opacity:1;fill-rule:nonzero;stroke:none"
         id="path2849"
         sodipodi:cx="-28.789347"
         sodipodi:cy="184.64114"
         sodipodi:rx="377.29196"
         sodipodi:ry="90.913727"
         d="m 348.50261,184.64114 a 377.29196,90.913727 0 1 1 -754.58392,0 377.29196,90.913727 0 1 1 754.58392,0 z" />
    </clipPath>
    <inkscape:perspective
       id="perspective10-4"
       inkscape:persp3d-origin="372.04724 : 350.78739 : 1"
       inkscape:vp_z="744.09448 : 526.18109 : 1"
       inkscape:vp_y="0 : 1000 : 0"
       inkscape:vp_x="0 : 526.18109 : 1"
       sodipodi:type="inkscape:persp3d" />
    <linearGradient
       id="linearGradient3670">
      <stop
         id="stop3672"
         offset="0"
         style="stop-color:#0d1a2e;stop-opacity:1;" />
      <stop
         id="stop3674"
         offset="1"
         style="stop-color:#2c5aa0;stop-opacity:1;" />
    </linearGradient>
    <inkscape:perspective
       id="perspective3091"
       inkscape:persp3d-origin="0.5 : 0.33333333 : 1"
       inkscape:vp_z="1 : 0.5 : 1"
       inkscape:vp_y="0 : 1000 : 0"
       inkscape:vp_x="0 : 0.5 : 1"
       sodipodi:type="inkscape:persp3d" />
    <inkscape:perspective
       id="perspective3091-4"
       inkscape:persp3d-origin="0.5 : 0.33333333 : 1"
       inkscape:vp_z="1 : 0.5 : 1"
       inkscape:vp_y="0 : 1000 : 0"
       inkscape:vp_x="0 : 0.5 : 1"
       sodipodi:type="inkscape:persp3d" />
    <inkscape:perspective
       id="perspective3907"
       inkscape:persp3d-origin="0.5 : 0.33333333 : 1"
       inkscape:vp_z="1 : 0.5 : 1"
       inkscape:vp_y="0 : 1000 : 0"
       inkscape:vp_x="0 : 0.5 : 1"
       sodipodi:type="inkscape:persp3d" />
    <clipPath
       id="clipPath2847-1-2"
       clipPathUnits="userSpaceOnUse">
      <path
         transform="translate(77.781747,33.335034)"
         sodipodi:type="arc"
         style="fill:#2c5aa0;fill-opacity:1;fill-rule:nonzero;stroke:none"
         id="path2849-2-6"
         sodipodi:cx="-28.789347"
         sodipodi:cy="184.64114"
         sodipodi:rx="377.29196"
         sodipodi:ry="90.913727"
         d="m 348.50261,184.64114 a 377.29196,90.913727 0 1 1 -754.58392,0 377.29196,90.913727 0 1 1 754.58392,0 z" />
    </clipPath>
    <inkscape:perspective
       sodipodi:type="inkscape:persp3d"
       inkscape:vp_x="0 : 0.5 : 1"
       inkscape:vp_y="0 : 1000 : 0"
       inkscape:vp_z="1 : 0.5 : 1"
       inkscape:persp3d-origin="0.5 : 0.33333333 : 1"
       id="perspective2907-8" />
    <clipPath
       id="clipPath2847-2"
       clipPathUnits="userSpaceOnUse">
      <path
         transform="translate(77.781747,33.335034)"
         sodipodi:type="arc"
         style="fill:#2c5aa0;fill-opacity:1;fill-rule:nonzero;stroke:none"
         id="path2849-7"
         sodipodi:cx="-28.789347"
         sodipodi:cy="184.64114"
         sodipodi:rx="377.29196"
         sodipodi:ry="90.913727"
         d="m 348.50261,184.64114 a 377.29196,90.913727 0 1 1 -754.58392,0 377.29196,90.913727 0 1 1 754.58392,0 z" />
    </clipPath>
    <inkscape:perspective
       id="perspective10-9"
       inkscape:persp3d-origin="372.04724 : 350.78739 : 1"
       inkscape:vp_z="744.09448 : 526.18109 : 1"
       inkscape:vp_y="0 : 1000 : 0"
       inkscape:vp_x="0 : 526.18109 : 1"
       sodipodi:type="inkscape:persp3d" />
    <linearGradient
       id="linearGradient3670-5">
      <stop
         id="stop3672-6"
         offset="0"
         style="stop-color:#0d1a2e;stop-opacity:1;" />
      <stop
         id="stop3674-4"
         offset="1"
         style="stop-color:#2c5aa0;stop-opacity:1;" />
    </linearGradient>
    <radialGradient
       inkscape:collect="always"
       xlink:href="#linearGradient3698"
       id="radialGradient3716"
       cx="181.51338"
       cy="282.086"
       fx="181.51338"
       fy="282.086"
       r="60.826233"
       gradientTransform="matrix(1.811647,-0.16841131,0.18904535,2.0336124,-185.99602,-257.68293)"
       gradientUnits="userSpaceOnUse" />
    <radialGradient
       inkscape:collect="always"
       xlink:href="#linearGradient3698"
       id="radialGradient3724"
       cx="-414.16254"
       cy="286.66656"
       fx="-414.16254"
       fy="286.66656"
       r="45.456863"
       gradientUnits="userSpaceOnUse"
       gradientTransform="matrix(1.3727555,-1.2585302,2.344179,2.5569388,-517.61637,-967.55836)" />
  </defs>
  <sodipodi:namedview
     id="base"
     pagecolor="#ffffff"
     bordercolor="#666666"
     borderopacity="1.0"
     inkscape:pageopacity="0.0"
     inkscape:pageshadow="2"
     inkscape:zoom="1.5000101"
     inkscape:cx="180.68128"
     inkscape:cy="68.490073"
     inkscape:document-units="px"
     inkscape:current-layer="layer1"
     showgrid="false"
     inkscape:window-width="1280"
     inkscape:window-height="726"
     inkscape:window-x="0"
     inkscape:window-y="25"
     inkscape:window-maximized="1" />
  <metadata
     id="metadata7">
    <rdf:RDF>
      <cc:Work
         rdf:about="">
        <dc:format>image/svg+xml</dc:format>
        <dc:type
           rdf:resource="http://purl.org/dc/dcmitype/StillImage" />
        <dc:title />
      </cc:Work>
    </rdf:RDF>
  </metadata>
  <g
     inkscape:label="Calque 1"
     inkscape:groupmode="layer"
     id="layer1"
     transform="translate(0,-52.43195)">
    <path
       id="path2861"
       style="color:#000000;fill:none;stroke:#ff6600;stroke-width:1.875;stroke-linecap:butt;stroke-linejoin:miter;stroke-miterlimit:4;stroke-opacity:1;stroke-dasharray:none;marker:none;visibility:visible;display:inline;overflow:visible;enable-background:accumulate"
       d="m 0.9375,147.55116 352.67993,-0.0577 c 29.025,0 52.87875,-18.11038 52.77125,-47.03225 l 0,0 c 0,-29.02625 -23.74625,-47.035 -52.7725,-47.035 L 0.9375,53.36945"
       sodipodi:nodetypes="cccccc" />
    <path
       id="path2869"
       style="color:#000000;fill:#ff6600;fill-opacity:1;fill-rule:nonzero;stroke:none;marker:none;visibility:visible;display:inline;overflow:visible;enable-background:accumulate"
       d="m 0,189.4121 377.64155,-0.0661 c 36.875,0 67.1725,-23.00488 67.0375,-59.74563 l 0,0.91313 c 0,-36.8685 -30.165,-59.74725 -67.0375,-59.74725 L 0.0032578,70.704592"
       sodipodi:nodetypes="cccccc" />
    <g
       id="g3935"
       transform="matrix(0.46120179,0,0,0.46120179,-72.595604,-11.85808)">
      <path
         transform="matrix(-0.02170464,3.2443719,-3.2443719,-0.02170464,1086.6847,1637.7995)"
         sodipodi:type="arc"
         style="fill:#550000;fill-opacity:1;fill-rule:nonzero;stroke:none"
         id="path3632"
         sodipodi:cx="-414.16254"
         sodipodi:cy="286.66656"
         sodipodi:rx="45.456863"
         sodipodi:ry="58.213081"
         d="m -368.70567,286.66656 c 0,32.1502 -20.35173,58.21309 -45.45687,58.21309 -25.10513,0 -45.45686,-26.06289 -45.45686,-58.21309 0,-32.15019 20.35173,-58.21308 45.45686,-58.21308 25.10514,0 45.45687,26.06289 45.45687,58.21308 z" />
      <path
         sodipodi:nodetypes="cssscs"
         id="path2854"
         d="m 107.22954,204.37891 c 24.29794,-61.12314 129.04123,-56.20434 178.74687,-6.4987 49.70562,49.70562 49.70562,130.29436 -2e-5,180 -24.99587,24.99587 -99.46928,37.53851 -127.94183,16.66853 -18.57813,-13.61749 35.10611,-64.73735 37.94184,-106.66852 -30.92487,-27.94568 -126.176567,10.65558 -88.74686,-83.50131 z"
         style="fill:#ffcc00;fill-opacity:1;fill-rule:nonzero;stroke:none" />
      <path
         style="fill:url(#radialGradient3716);fill-opacity:1;fill-rule:nonzero;stroke:none"
         d="m 223.96618,375.63283 c -15.72822,11.80315 -86.33011,-13.85688 -97.73716,-56.42858 -11.40706,-42.57168 13.85688,-86.3301 56.42858,-97.73715 18.43127,-4.93864 42.3144,-8.57506 55.2206,5.15556 18.98761,20.2005 -4.42565,24.58437 -11.62889,50.50302 -7.01622,25.24578 10.45271,88.94962 -2.28313,98.50715 z"
         id="path3163"
         sodipodi:nodetypes="csssss" />
      <path
         sodipodi:nodetypes="csssss"
         id="path2852"
         d="m 216.6307,364.96304 c -15.72822,11.80315 -86.33011,-13.85688 -97.73717,-56.42858 -11.40705,-42.57168 13.85689,-86.3301 56.42859,-97.73715 18.43127,-4.93864 42.3144,-8.57506 55.2206,5.15556 18.98761,20.2005 -4.42565,24.58437 -11.62889,50.50302 -7.01622,25.24578 10.45271,88.94962 -2.28313,98.50715 z"
         style="fill:#ff6600;fill-opacity:1;fill-rule:nonzero;stroke:none" />
      <path
         transform="matrix(0.25881905,0.96592583,-0.96592583,0.25881905,582.65399,616.1852)"
         sodipodi:type="arc"
         style="fill:url(#radialGradient3724);fill-opacity:1;fill-rule:nonzero;stroke:none"
         id="path3648"
         sodipodi:cx="-414.16254"
         sodipodi:cy="286.66656"
         sodipodi:rx="45.456863"
         sodipodi:ry="45.456863"
         d="m -368.70567,286.66656 c 0,25.10514 -20.35173,45.45687 -45.45687,45.45687 -25.10513,0 -45.45686,-20.35173 -45.45686,-45.45687 0,-25.10513 20.35173,-45.45686 45.45686,-45.45686 25.10514,0 45.45687,20.35173 45.45687,45.45686 z" />
      <path
         transform="matrix(0.25881905,0.96592583,-0.96592583,0.25881905,580.06821,613.73571)"
         sodipodi:type="arc"
         style="fill:#0066ff;fill-opacity:1;fill-rule:nonzero;stroke:none"
         id="path3668"
         sodipodi:cx="-414.16254"
         sodipodi:cy="286.66656"
         sodipodi:rx="45.456863"
         sodipodi:ry="45.456863"
         d="m -368.70567,286.66656 c 0,25.10514 -20.35173,45.45687 -45.45687,45.45687 -25.10513,0 -45.45686,-20.35173 -45.45686,-45.45687 0,-25.10513 20.35173,-45.45686 45.45686,-45.45686 25.10514,0 45.45687,20.35173 45.45687,45.45686 z" />
      <path
         sodipodi:nodetypes="ccsc"
         id="path2848"
         d="m 207.74152,331.78815 c -59.63692,8.42945 4.70366,-56.77693 -23.5302,-87.81592 24.24969,-6.49769 49.17537,7.89316 55.67305,32.14285 6.49769,24.2497 -7.89315,49.17538 -32.14285,55.67307 z"
         style="fill:#617fff;fill-opacity:1;fill-rule:nonzero;stroke:none" />
    </g>
    <g
       id="g3728"
       transform="translate(12,0.73468612)">
      <g
         transform="matrix(0.09247284,0,0,0.09247284,52.091739,33.966404)"
         id="g4117">
        <path
           sodipodi:type="inkscape:offset"
           inkscape:radius="3.0582964"
           inkscape:original="M 308 231.53125 C 301.73322 231.53139 295.73322 232.33764 290 233.9375 C 284.26657 235.4043 278.84782 237.54388 273.78125 240.34375 C 271.9145 238.87722 269.527 237.54388 266.59375 236.34375 C 264.06034 235.27722 260.86659 234.33139 257 233.53125 C 253.13327 232.73139 248.38119 232.34389 242.78125 232.34375 L 191 232.34375 L 191 301.9375 L 190.1875 372.34375 L 231.78125 372.34375 C 231.7812 368.87709 232.92079 365.93126 235.1875 363.53125 C 237.45411 360.99793 240.31453 359.75001 243.78125 359.75 C 247.24785 359.75001 250.13952 360.99793 252.40625 363.53125 C 254.80618 365.93126 255.99993 368.87709 256 372.34375 L 300 371.53125 C 299.99989 368.06459 301.13947 365.25834 303.40625 363.125 C 305.6728 360.85834 308.53321 359.75001 312 359.75 C 315.46654 359.75001 318.32695 360.85834 320.59375 363.125 C 322.99361 365.25834 324.18736 368.06459 324.1875 371.53125 L 376.78125 371.53125 L 377.59375 301.125 C 377.59356 291.52508 375.73314 282.52509 372 274.125 C 368.39982 265.59177 363.45399 258.20428 357.1875 251.9375 C 350.92067 245.53763 343.53317 240.53763 335 236.9375 C 326.59986 233.33764 317.59987 231.53139 308 231.53125 z M 457.46875 231.9375 C 447.86868 231.93764 438.78328 233.79806 430.25 237.53125 C 421.71663 241.13138 414.27497 246.13138 407.875 252.53125 C 401.60831 258.93136 396.60832 266.40427 392.875 274.9375 C 389.27499 283.33759 387.46875 292.33758 387.46875 301.9375 C 387.46875 311.67089 389.27499 320.81047 392.875 329.34375 C 396.60832 337.87712 401.60831 345.35003 407.875 351.75 C 414.27497 358.15001 421.71663 363.20418 430.25 366.9375 C 438.78328 370.5375 447.86868 372.34375 457.46875 372.34375 L 527.46875 372.34375 L 527.46875 326.9375 C 524.00194 326.93755 520.86236 325.79796 518.0625 323.53125 C 515.26237 321.1313 513.87487 318.21672 513.875 314.75 L 527.46875 314.75 L 527.65625 301.9375 C 527.6561 292.33758 525.79569 283.33759 522.0625 274.9375 C 518.46236 266.40427 513.46237 258.93136 507.0625 252.53125 C 500.79571 246.13138 493.40822 241.13138 484.875 237.53125 C 476.34157 233.79806 467.202 231.93764 457.46875 231.9375 z M 685.59375 231.9375 C 675.99368 231.93764 666.90828 233.79806 658.375 237.53125 C 649.84163 241.13138 642.39997 246.13138 636 252.53125 C 629.73331 258.93136 624.73332 266.40427 621 274.9375 C 617.39999 283.33759 615.59375 292.33758 615.59375 301.9375 C 615.59374 311.67089 617.39999 320.81047 621 329.34375 C 624.73332 337.87712 629.73331 345.35003 636 351.75 C 642.39997 358.15001 649.84163 363.20418 658.375 366.9375 C 666.90828 370.5375 675.99368 372.34375 685.59375 372.34375 L 755.1875 372.34375 L 755.78125 301.9375 C 755.7811 292.33758 753.92069 283.33759 750.1875 274.9375 C 746.58736 266.40427 741.58737 258.93136 735.1875 252.53125 C 728.92072 246.13138 721.53322 241.13138 713 237.53125 C 704.46657 233.79806 695.327 231.93764 685.59375 231.9375 z M 537.84375 232.53125 L 537.84375 311.53125 C 537.84375 320.19797 539.45624 328.33754 542.65625 335.9375 C 545.85624 343.4042 550.24373 349.93127 555.84375 355.53125 C 561.44372 361.13126 567.9708 365.55001 575.4375 368.75 C 583.03745 371.95 591.17702 373.53125 599.84375 373.53125 L 599.4375 305.75 L 594.4375 305.75 L 594.4375 299.34375 C 597.5041 299.34382 600.1166 298.34382 602.25 296.34375 C 604.5166 294.21049 605.65618 291.598 605.65625 288.53125 C 605.65618 285.46467 604.5166 282.93759 602.25 280.9375 C 600.1166 278.93759 597.5041 277.93759 594.4375 277.9375 L 594.4375 232.53125 L 537.84375 232.53125 z M 505.46875 282.9375 C 508.93529 282.93759 511.7957 284.07717 514.0625 286.34375 C 516.46237 288.6105 517.65611 291.47091 517.65625 294.9375 C 517.65611 298.40424 516.46237 301.35007 514.0625 303.75 C 511.7957 306.01673 508.93529 307.12507 505.46875 307.125 C 502.00196 307.12507 499.05613 306.01673 496.65625 303.75 C 494.38947 301.35007 493.24989 298.40424 493.25 294.9375 C 493.24989 291.47091 494.38947 288.6105 496.65625 286.34375 C 499.05613 284.07717 502.00196 282.93759 505.46875 282.9375 z M 673 313.34375 C 676.4666 313.34381 679.32701 314.53756 681.59375 316.9375 C 683.99368 319.20422 685.18743 322.06463 685.1875 325.53125 C 685.18743 328.99796 683.99368 331.94379 681.59375 334.34375 C 679.32701 336.61045 676.4666 337.75003 673 337.75 C 669.53327 337.75003 666.58744 336.61045 664.1875 334.34375 C 661.92078 331.94379 660.7812 328.99796 660.78125 325.53125 C 660.7812 322.06463 661.92078 319.20422 664.1875 316.9375 C 666.58744 314.53756 669.53327 313.34381 673 313.34375 z "
           xlink:href="#text4366"
           style="font-size:89.35980225px;font-style:normal;font-variant:normal;font-weight:bold;font-stretch:normal;text-align:center;line-height:100%;writing-mode:lr-tb;text-anchor:middle;fill:#000000;fill-opacity:1;fill-rule:nonzero;stroke:none;font-family:Impact;-inkscape-font-specification:Impact Bold"
           id="path4378"
           inkscape:href="#text4366"
           d="m 308,228.46875 c -6.50563,1.5e-4 -12.76051,0.83514 -18.75,2.5 -0.0225,0.006 -0.04,0.0255 -0.0625,0.0312 -5.3364,1.37052 -10.38886,3.35657 -15.1875,5.84375 -1.81866,-1.21342 -3.82702,-2.33143 -6.21875,-3.3125 -0.008,-0.004 -0.0229,0.004 -0.0312,0 -2.77974,-1.16765 -6.12938,-2.17316 -10.125,-3 -4.1616,-0.86086 -9.10277,-1.24986 -14.84375,-1.25 l -51.78125,0 a 3.0586023,3.0586023 0 0 0 -3.0625,3.0625 l 0,69.5625 0,0.0312 -0.8125,70.375 a 3.0586023,3.0586023 0 0 0 3.0625,3.09375 l 41.59375,0 a 3.0586023,3.0586023 0 0 0 3.0625,-3.0625 c -4e-5,-2.7964 0.80221,-4.85495 2.5625,-6.71875 a 3.0586023,3.0586023 0 0 0 0.0625,-0.0625 c 1.74685,-1.9524 3.57971,-2.74999 6.3125,-2.75 2.73265,10e-6 4.60607,0.80795 6.34375,2.75 a 3.0586023,3.0586023 0 0 0 0.125,0.125 c 1.87371,1.87377 2.68744,3.89164 2.6875,6.65625 a 3.0586023,3.0586023 0 0 0 3.125,3.0625 l 44,-0.8125 a 3.0586023,3.0586023 0 0 0 3,-3.0625 c -9e-5,-2.79638 0.77293,-4.62092 2.4375,-6.1875 a 3.0586023,3.0586023 0 0 0 0.0625,-0.0625 c 1.70932,-1.7094 3.62253,-2.46874 6.4375,-2.46875 2.81467,10e-6 4.72786,0.75922 6.4375,2.46875 a 3.0586023,3.0586023 0 0 0 0.125,0.125 c 1.78091,1.58313 2.56239,3.36036 2.5625,6.125 a 3.0586023,3.0586023 0 0 0 3.0625,3.0625 l 52.59375,0 a 3.0586023,3.0586023 0 0 0 3.0625,-3.03125 l 0.8125,-70.40625 a 3.0586023,3.0586023 0 0 0 0,-0.0312 c -2e-4,-9.97084 -1.95342,-19.40927 -5.84375,-28.1875 -0.009,-0.0217 -0.0221,-0.0408 -0.0312,-0.0625 -3.73623,-8.8336 -8.88977,-16.53758 -15.40625,-23.0625 -0.0104,-0.0106 -0.0209,-0.0207 -0.0312,-0.0312 -6.53729,-6.66765 -14.26493,-11.91432 -23.125,-15.65625 -0.009,-0.004 -0.0222,0.004 -0.0312,0 -8.77898,-3.7578 -18.21427,-5.6561 -28.1875,-5.65625 z m 149.46875,0.40625 c -9.98508,1.5e-4 -19.49227,1.94848 -28.40625,5.84375 -0.009,0.004 -0.0223,-0.004 -0.0312,0 -8.87018,3.74605 -16.64409,8.98794 -23.3125,15.65625 a 3.0586023,3.0586023 0 0 0 -0.0312,0.0312 c -6.53035,6.66938 -11.75257,14.46131 -15.625,23.3125 -3.76567,8.78663 -5.65625,18.23521 -5.65625,28.21875 0,10.11175 1.89465,19.67745 5.65625,28.59375 a 3.0586023,3.0586023 0 0 0 0,0.0312 c 3.87243,8.85134 9.09463,16.64324 15.625,23.3125 a 3.0586023,3.0586023 0 0 0 0.0312,0.0312 c 6.66888,6.66892 14.4487,11.96587 23.3125,15.84375 a 3.0586023,3.0586023 0 0 0 0.0312,0 c 8.91203,3.75979 18.42257,5.65625 28.40625,5.65625 l 70,0 a 3.0586023,3.0586023 0 0 0 3.0625,-3.0625 l 0,-45.40625 a 3.0586023,3.0586023 0 0 0 -3.0625,-3.0625 c -2.78739,4e-5 -5.12435,-0.85307 -7.4375,-2.71875 -0.006,-0.005 -0.0255,0.005 -0.0312,0 -1.22264,-1.06232 -1.96448,-2.16817 -2.4375,-3.34375 l 9.90625,0 a 3.0586023,3.0586023 0 0 0 3.0625,-3.03125 l 0.1875,-12.8125 a 3.0586023,3.0586023 0 0 0 0,-0.0312 c -1.6e-4,-9.97085 -1.95337,-19.40926 -5.84375,-28.1875 -0.009,-0.0216 -0.0221,-0.0409 -0.0312,-0.0625 -3.738,-8.8378 -8.9466,-16.62578 -15.59375,-23.28125 -0.0104,-0.0106 -0.0209,-0.0207 -0.0312,-0.0312 -6.53725,-6.66765 -14.26488,-11.91432 -23.125,-15.65625 -0.009,-0.004 -0.0223,0.004 -0.0312,0 -8.91859,-3.89718 -18.48099,-5.8436 -28.59375,-5.84375 z m 228.125,0 c -9.98508,1.5e-4 -19.49227,1.94848 -28.40625,5.84375 -0.009,0.004 -0.0223,-0.004 -0.0312,0 -8.87018,3.74605 -16.64409,8.98794 -23.3125,15.65625 a 3.0586023,3.0586023 0 0 0 -0.0312,0.0312 c -6.53035,6.66938 -11.75257,14.46131 -15.625,23.3125 -3.76567,8.78663 -5.65625,18.23521 -5.65625,28.21875 -10e-6,10.11175 1.89465,19.67745 5.65625,28.59375 a 3.0586023,3.0586023 0 0 0 0,0.0312 c 3.87243,8.85134 9.09463,16.64324 15.625,23.3125 a 3.0586023,3.0586023 0 0 0 0.0312,0.0312 c 6.66888,6.66892 14.4487,11.96587 23.3125,15.84375 a 3.0586023,3.0586023 0 0 0 0.0312,0 c 8.91203,3.75979 18.42257,5.65625 28.40625,5.65625 l 69.59375,0 A 3.0586023,3.0586023 0 0 0 758.25,372.375 l 0.59375,-70.40625 a 3.0586023,3.0586023 0 0 0 0,-0.0312 C 758.84359,291.96665 756.89038,282.52824 753,273.75 c -0.009,-0.0216 -0.0221,-0.0409 -0.0312,-0.0625 -3.738,-8.8378 -8.9466,-16.62578 -15.59375,-23.28125 -0.0104,-0.0106 -0.0209,-0.0207 -0.0312,-0.0312 -6.53725,-6.66766 -14.26488,-11.91432 -23.125,-15.65625 -0.009,-0.004 -0.0223,0.004 -0.0312,0 -8.91859,-3.89718 -18.48099,-5.8436 -28.59375,-5.84375 z m -147.75,0.59375 a 3.0586023,3.0586023 0 0 0 -3.0625,3.0625 l 0,79 c 0,9.04606 1.70202,17.61267 5.0625,25.59375 a 3.0586023,3.0586023 0 0 0 0,0.0312 c 3.3445,7.80388 7.96831,14.65585 13.84375,20.53125 5.87136,5.87141 12.72074,10.52766 20.53125,13.875 a 3.0586023,3.0586023 0 0 0 0.0312,0 c 7.98763,3.36324 16.55503,5.03125 25.59375,5.03125 A 3.0586023,3.0586023 0 0 0 602.90625,373.5 L 602.5,305.71875 a 3.0586023,3.0586023 0 0 0 -3.0625,-3.03125 l -1.9375,0 0,-0.625 c 2.55886,-0.52574 4.92131,-1.6977 6.84375,-3.5 2.8015,-2.6367 4.37491,-6.20691 4.375,-10.03125 -9e-5,-3.79393 -1.57356,-7.3068 -4.375,-9.8125 -0.0215,-0.0202 -0.0409,-0.0425 -0.0625,-0.0625 -1.9104,-1.76841 -4.25112,-2.91761 -6.78125,-3.4375 l 0,-42.6875 a 3.0586023,3.0586023 0 0 0 -3.0625,-3.0625 l -56.59375,0 z M 505.46875,286 c 2.79633,7e-5 4.71792,0.78059 6.4375,2.5 a 3.0586023,3.0586023 0 0 0 0.0625,0.0625 c 1.83423,1.73248 2.62489,3.61044 2.625,6.375 -1.1e-4,2.76475 -0.81388,4.78258 -2.6875,6.65625 -1.70964,1.70959 -3.62287,2.46881 -6.4375,2.46875 -2.78087,6e-5 -4.8206,-0.76227 -6.65625,-2.46875 -1.71633,-1.84573 -2.50009,-3.89361 -2.5,-6.65625 -9e-5,-2.76058 0.76333,-4.67241 2.4375,-6.375 0.0113,-0.0106 0.02,-0.0207 0.0312,-0.0312 0.0109,-0.011 0.0203,-0.0203 0.0312,-0.0312 1.84569,-1.71617 3.89345,-2.49993 6.65625,-2.5 z M 673,316.40625 c 2.76453,5e-5 4.64253,0.79072 6.375,2.625 a 3.0586023,3.0586023 0 0 0 0.125,0.125 c 1.83426,1.73245 2.62494,3.61044 2.625,6.375 -6e-5,2.76467 -0.81381,4.78254 -2.6875,6.65625 -1.7195,1.71947 -3.64115,2.50002 -6.4375,2.5 -2.76267,2e-5 -4.8105,-0.78372 -6.65625,-2.5 -1.7163,-1.84578 -2.50004,-3.89361 -2.5,-6.65625 -4e-5,-2.79636 0.78053,-4.71803 2.5,-6.4375 1.87368,-1.87368 3.89156,-2.68745 6.65625,-2.6875 z" />
        <text
           xml:space="preserve"
           style="font-size:197.83482361px;font-style:normal;font-variant:normal;font-weight:bold;font-stretch:normal;text-align:center;line-height:100%;writing-mode:lr-tb;text-anchor:middle;fill:#000000;fill-opacity:1;fill-rule:nonzero;stroke:none;font-family:Impact;-inkscape-font-specification:Impact Bold"
           x="473.08698"
           y="372.33911"
           id="text4366"
           sodipodi:linespacing="100%"><tspan
             sodipodi:role="line"
             id="tspan4368"
             x="473.08698"
             y="372.33911"
             style="font-size:200px;font-style:normal;font-variant:normal;font-weight:normal;font-stretch:normal;text-align:center;line-height:100%;writing-mode:lr-tb;text-anchor:middle;fill:#000000;font-family:Lein Bold;-inkscape-font-specification:'Lein Bold,'"><tspan
               style="font-size:200px;font-style:normal;font-variant:normal;font-weight:normal;font-stretch:normal;text-align:center;line-height:100%;writing-mode:lr-tb;text-anchor:middle;fill:#550000;font-family:Lein Bold;-inkscape-font-specification:'Lein Bold,'"
               id="tspan4370">M</tspan><tspan
               style="font-size:200px;font-style:normal;font-variant:normal;font-weight:normal;font-stretch:normal;text-align:center;line-height:100%;writing-mode:lr-tb;text-anchor:middle;fill:#ff6600;font-family:Lein Bold;-inkscape-font-specification:'Lein Bold,'"
               id="tspan4372"><tspan
   style="fill:#ffcc00"
   id="tspan4547">E</tspan>T</tspan><tspan
               style="font-size:200px;font-style:normal;font-variant:normal;font-weight:normal;font-stretch:normal;text-align:center;line-height:100%;writing-mode:lr-tb;text-anchor:middle;fill:#0066ff;font-family:Lein Bold;-inkscape-font-specification:'Lein Bold,'"
               id="tspan4376">A</tspan></tspan></text>
      </g>
      <path
         id="path3726"
         d="m 69.734998,58.575946 0,-3.171638 3.084203,0.03562 3.084202,0.03562 0.685379,0.297769 c 0.376958,0.163774 0.732827,0.295633 0.790821,0.293021 0.05799,-0.0026 0.520361,-0.150342 1.027483,-0.32829 1.749832,-0.614009 3.314678,-0.516616 4.993021,0.310759 0.880332,0.433978 2.001862,1.415084 2.389778,2.090559 l 0.185743,0.323432 -0.607515,0.228306 c -2.218768,0.833821 -6.976483,1.919346 -10.835466,2.472231 -1.070654,0.153394 -4.536941,0.582113 -4.718566,0.583603 -0.0435,3.57e-4 -0.07908,-1.426588 -0.07908,-3.17099 z"
         style="color:#000000;fill:#7f4040;fill-opacity:1;fill-rule:nonzero;stroke:none;stroke-width:0.10544282px;marker:none;visibility:visible;display:inline;overflow:visible;enable-background:accumulate" />
    </g>
    <g
       id="g3739"
       transform="translate(67.5,0.73468612)">
      <g
         id="g3741"
         transform="matrix(0.09247284,0,0,0.09247284,52.091739,33.966404)">
        <path
           d="m 308,228.46875 c -6.50563,1.5e-4 -12.76051,0.83514 -18.75,2.5 -0.0225,0.006 -0.04,0.0255 -0.0625,0.0312 -5.3364,1.37052 -10.38886,3.35657 -15.1875,5.84375 -1.81866,-1.21342 -3.82702,-2.33143 -6.21875,-3.3125 -0.008,-0.004 -0.0229,0.004 -0.0312,0 -2.77974,-1.16765 -6.12938,-2.17316 -10.125,-3 -4.1616,-0.86086 -9.10277,-1.24986 -14.84375,-1.25 l -51.78125,0 a 3.0586023,3.0586023 0 0 0 -3.0625,3.0625 l 0,69.5625 0,0.0312 -0.8125,70.375 a 3.0586023,3.0586023 0 0 0 3.0625,3.09375 l 41.59375,0 a 3.0586023,3.0586023 0 0 0 3.0625,-3.0625 c -4e-5,-2.7964 0.80221,-4.85495 2.5625,-6.71875 a 3.0586023,3.0586023 0 0 0 0.0625,-0.0625 c 1.74685,-1.9524 3.57971,-2.74999 6.3125,-2.75 2.73265,10e-6 4.60607,0.80795 6.34375,2.75 a 3.0586023,3.0586023 0 0 0 0.125,0.125 c 1.87371,1.87377 2.68744,3.89164 2.6875,6.65625 a 3.0586023,3.0586023 0 0 0 3.125,3.0625 l 44,-0.8125 a 3.0586023,3.0586023 0 0 0 3,-3.0625 c -9e-5,-2.79638 0.77293,-4.62092 2.4375,-6.1875 a 3.0586023,3.0586023 0 0 0 0.0625,-0.0625 c 1.70932,-1.7094 3.62253,-2.46874 6.4375,-2.46875 2.81467,10e-6 4.72786,0.75922 6.4375,2.46875 a 3.0586023,3.0586023 0 0 0 0.125,0.125 c 1.78091,1.58313 2.56239,3.36036 2.5625,6.125 a 3.0586023,3.0586023 0 0 0 3.0625,3.0625 l 52.59375,0 a 3.0586023,3.0586023 0 0 0 3.0625,-3.03125 l 0.8125,-70.40625 a 3.0586023,3.0586023 0 0 0 0,-0.0312 c -2e-4,-9.97084 -1.95342,-19.40927 -5.84375,-28.1875 -0.009,-0.0217 -0.0221,-0.0408 -0.0312,-0.0625 -3.73623,-8.8336 -8.88977,-16.53758 -15.40625,-23.0625 -0.0104,-0.0106 -0.0209,-0.0207 -0.0312,-0.0312 -6.53729,-6.66765 -14.26493,-11.91432 -23.125,-15.65625 -0.009,-0.004 -0.0222,0.004 -0.0312,0 -8.77898,-3.7578 -18.21427,-5.6561 -28.1875,-5.65625 z m 149.46875,0.40625 c -9.98508,1.5e-4 -19.49227,1.94848 -28.40625,5.84375 -0.009,0.004 -0.0223,-0.004 -0.0312,0 -8.87018,3.74605 -16.64409,8.98794 -23.3125,15.65625 a 3.0586023,3.0586023 0 0 0 -0.0312,0.0312 c -6.53035,6.66938 -11.75257,14.46131 -15.625,23.3125 -3.76567,8.78663 -5.65625,18.23521 -5.65625,28.21875 0,10.11175 1.89465,19.67745 5.65625,28.59375 a 3.0586023,3.0586023 0 0 0 0,0.0312 c 3.87243,8.85134 9.09463,16.64324 15.625,23.3125 a 3.0586023,3.0586023 0 0 0 0.0312,0.0312 c 6.66888,6.66892 14.4487,11.96587 23.3125,15.84375 a 3.0586023,3.0586023 0 0 0 0.0312,0 c 8.91203,3.75979 18.42257,5.65625 28.40625,5.65625 l 70,0 a 3.0586023,3.0586023 0 0 0 3.0625,-3.0625 l 0,-45.40625 a 3.0586023,3.0586023 0 0 0 -3.0625,-3.0625 c -2.78739,4e-5 -5.12435,-0.85307 -7.4375,-2.71875 -0.006,-0.005 -0.0255,0.005 -0.0312,0 -1.22264,-1.06232 -1.96448,-2.16817 -2.4375,-3.34375 l 9.90625,0 a 3.0586023,3.0586023 0 0 0 3.0625,-3.03125 l 0.1875,-12.8125 a 3.0586023,3.0586023 0 0 0 0,-0.0312 c -1.6e-4,-9.97085 -1.95337,-19.40926 -5.84375,-28.1875 -0.009,-0.0216 -0.0221,-0.0409 -0.0312,-0.0625 -3.738,-8.8378 -8.9466,-16.62578 -15.59375,-23.28125 -0.0104,-0.0106 -0.0209,-0.0207 -0.0312,-0.0312 -6.53725,-6.66765 -14.26488,-11.91432 -23.125,-15.65625 -0.009,-0.004 -0.0223,0.004 -0.0312,0 -8.91859,-3.89718 -18.48099,-5.8436 -28.59375,-5.84375 z m 228.125,0 c -9.98508,1.5e-4 -19.49227,1.94848 -28.40625,5.84375 -0.009,0.004 -0.0223,-0.004 -0.0312,0 -8.87018,3.74605 -16.64409,8.98794 -23.3125,15.65625 a 3.0586023,3.0586023 0 0 0 -0.0312,0.0312 c -6.53035,6.66938 -11.75257,14.46131 -15.625,23.3125 -3.76567,8.78663 -5.65625,18.23521 -5.65625,28.21875 -10e-6,10.11175 1.89465,19.67745 5.65625,28.59375 a 3.0586023,3.0586023 0 0 0 0,0.0312 c 3.87243,8.85134 9.09463,16.64324 15.625,23.3125 a 3.0586023,3.0586023 0 0 0 0.0312,0.0312 c 6.66888,6.66892 14.4487,11.96587 23.3125,15.84375 a 3.0586023,3.0586023 0 0 0 0.0312,0 c 8.91203,3.75979 18.42257,5.65625 28.40625,5.65625 l 69.59375,0 A 3.0586023,3.0586023 0 0 0 758.25,372.375 l 0.59375,-70.40625 a 3.0586023,3.0586023 0 0 0 0,-0.0312 C 758.84359,291.96665 756.89038,282.52824 753,273.75 c -0.009,-0.0216 -0.0221,-0.0409 -0.0312,-0.0625 -3.738,-8.8378 -8.9466,-16.62578 -15.59375,-23.28125 -0.0104,-0.0106 -0.0209,-0.0207 -0.0312,-0.0312 -6.53725,-6.66766 -14.26488,-11.91432 -23.125,-15.65625 -0.009,-0.004 -0.0223,0.004 -0.0312,0 -8.91859,-3.89718 -18.48099,-5.8436 -28.59375,-5.84375 z m -147.75,0.59375 a 3.0586023,3.0586023 0 0 0 -3.0625,3.0625 l 0,79 c 0,9.04606 1.70202,17.61267 5.0625,25.59375 a 3.0586023,3.0586023 0 0 0 0,0.0312 c 3.3445,7.80388 7.96831,14.65585 13.84375,20.53125 5.87136,5.87141 12.72074,10.52766 20.53125,13.875 a 3.0586023,3.0586023 0 0 0 0.0312,0 c 7.98763,3.36324 16.55503,5.03125 25.59375,5.03125 A 3.0586023,3.0586023 0 0 0 602.90625,373.5 L 602.5,305.71875 a 3.0586023,3.0586023 0 0 0 -3.0625,-3.03125 l -1.9375,0 0,-0.625 c 2.55886,-0.52574 4.92131,-1.6977 6.84375,-3.5 2.8015,-2.6367 4.37491,-6.20691 4.375,-10.03125 -9e-5,-3.79393 -1.57356,-7.3068 -4.375,-9.8125 -0.0215,-0.0202 -0.0409,-0.0425 -0.0625,-0.0625 -1.9104,-1.76841 -4.25112,-2.91761 -6.78125,-3.4375 l 0,-42.6875 a 3.0586023,3.0586023 0 0 0 -3.0625,-3.0625 l -56.59375,0 z M 505.46875,286 c 2.79633,7e-5 4.71792,0.78059 6.4375,2.5 a 3.0586023,3.0586023 0 0 0 0.0625,0.0625 c 1.83423,1.73248 2.62489,3.61044 2.625,6.375 -1.1e-4,2.76475 -0.81388,4.78258 -2.6875,6.65625 -1.70964,1.70959 -3.62287,2.46881 -6.4375,2.46875 -2.78087,6e-5 -4.8206,-0.76227 -6.65625,-2.46875 -1.71633,-1.84573 -2.50009,-3.89361 -2.5,-6.65625 -9e-5,-2.76058 0.76333,-4.67241 2.4375,-6.375 0.0113,-0.0106 0.02,-0.0207 0.0312,-0.0312 0.0109,-0.011 0.0203,-0.0203 0.0312,-0.0312 1.84569,-1.71617 3.89345,-2.49993 6.65625,-2.5 z M 673,316.40625 c 2.76453,5e-5 4.64253,0.79072 6.375,2.625 a 3.0586023,3.0586023 0 0 0 0.125,0.125 c 1.83426,1.73245 2.62494,3.61044 2.625,6.375 -6e-5,2.76467 -0.81381,4.78254 -2.6875,6.65625 -1.7195,1.71947 -3.64115,2.50002 -6.4375,2.5 -2.76267,2e-5 -4.8105,-0.78372 -6.65625,-2.5 -1.7163,-1.84578 -2.50004,-3.89361 -2.5,-6.65625 -4e-5,-2.79636 0.78053,-4.71803 2.5,-6.4375 1.87368,-1.87368 3.89156,-2.68745 6.65625,-2.6875 z"
           inkscape:href="#text4366"
           id="path3743"
           style="font-size:89.35980225px;font-style:normal;font-variant:normal;font-weight:bold;font-stretch:normal;text-align:center;line-height:100%;writing-mode:lr-tb;text-anchor:middle;fill:#000000;fill-opacity:1;fill-rule:nonzero;stroke:none;font-family:Impact;-inkscape-font-specification:Impact Bold"
           xlink:href="#text4366"
           inkscape:original="M 308 231.53125 C 301.73322 231.53139 295.73322 232.33764 290 233.9375 C 284.26657 235.4043 278.84782 237.54388 273.78125 240.34375 C 271.9145 238.87722 269.527 237.54388 266.59375 236.34375 C 264.06034 235.27722 260.86659 234.33139 257 233.53125 C 253.13327 232.73139 248.38119 232.34389 242.78125 232.34375 L 191 232.34375 L 191 301.9375 L 190.1875 372.34375 L 231.78125 372.34375 C 231.7812 368.87709 232.92079 365.93126 235.1875 363.53125 C 237.45411 360.99793 240.31453 359.75001 243.78125 359.75 C 247.24785 359.75001 250.13952 360.99793 252.40625 363.53125 C 254.80618 365.93126 255.99993 368.87709 256 372.34375 L 300 371.53125 C 299.99989 368.06459 301.13947 365.25834 303.40625 363.125 C 305.6728 360.85834 308.53321 359.75001 312 359.75 C 315.46654 359.75001 318.32695 360.85834 320.59375 363.125 C 322.99361 365.25834 324.18736 368.06459 324.1875 371.53125 L 376.78125 371.53125 L 377.59375 301.125 C 377.59356 291.52508 375.73314 282.52509 372 274.125 C 368.39982 265.59177 363.45399 258.20428 357.1875 251.9375 C 350.92067 245.53763 343.53317 240.53763 335 236.9375 C 326.59986 233.33764 317.59987 231.53139 308 231.53125 z M 457.46875 231.9375 C 447.86868 231.93764 438.78328 233.79806 430.25 237.53125 C 421.71663 241.13138 414.27497 246.13138 407.875 252.53125 C 401.60831 258.93136 396.60832 266.40427 392.875 274.9375 C 389.27499 283.33759 387.46875 292.33758 387.46875 301.9375 C 387.46875 311.67089 389.27499 320.81047 392.875 329.34375 C 396.60832 337.87712 401.60831 345.35003 407.875 351.75 C 414.27497 358.15001 421.71663 363.20418 430.25 366.9375 C 438.78328 370.5375 447.86868 372.34375 457.46875 372.34375 L 527.46875 372.34375 L 527.46875 326.9375 C 524.00194 326.93755 520.86236 325.79796 518.0625 323.53125 C 515.26237 321.1313 513.87487 318.21672 513.875 314.75 L 527.46875 314.75 L 527.65625 301.9375 C 527.6561 292.33758 525.79569 283.33759 522.0625 274.9375 C 518.46236 266.40427 513.46237 258.93136 507.0625 252.53125 C 500.79571 246.13138 493.40822 241.13138 484.875 237.53125 C 476.34157 233.79806 467.202 231.93764 457.46875 231.9375 z M 685.59375 231.9375 C 675.99368 231.93764 666.90828 233.79806 658.375 237.53125 C 649.84163 241.13138 642.39997 246.13138 636 252.53125 C 629.73331 258.93136 624.73332 266.40427 621 274.9375 C 617.39999 283.33759 615.59375 292.33758 615.59375 301.9375 C 615.59374 311.67089 617.39999 320.81047 621 329.34375 C 624.73332 337.87712 629.73331 345.35003 636 351.75 C 642.39997 358.15001 649.84163 363.20418 658.375 366.9375 C 666.90828 370.5375 675.99368 372.34375 685.59375 372.34375 L 755.1875 372.34375 L 755.78125 301.9375 C 755.7811 292.33758 753.92069 283.33759 750.1875 274.9375 C 746.58736 266.40427 741.58737 258.93136 735.1875 252.53125 C 728.92072 246.13138 721.53322 241.13138 713 237.53125 C 704.46657 233.79806 695.327 231.93764 685.59375 231.9375 z M 537.84375 232.53125 L 537.84375 311.53125 C 537.84375 320.19797 539.45624 328.33754 542.65625 335.9375 C 545.85624 343.4042 550.24373 349.93127 555.84375 355.53125 C 561.44372 361.13126 567.9708 365.55001 575.4375 368.75 C 583.03745 371.95 591.17702 373.53125 599.84375 373.53125 L 599.4375 305.75 L 594.4375 305.75 L 594.4375 299.34375 C 597.5041 299.34382 600.1166 298.34382 602.25 296.34375 C 604.5166 294.21049 605.65618 291.598 605.65625 288.53125 C 605.65618 285.46467 604.5166 282.93759 602.25 280.9375 C 600.1166 278.93759 597.5041 277.93759 594.4375 277.9375 L 594.4375 232.53125 L 537.84375 232.53125 z M 505.46875 282.9375 C 508.93529 282.93759 511.7957 284.07717 514.0625 286.34375 C 516.46237 288.6105 517.65611 291.47091 517.65625 294.9375 C 517.65611 298.40424 516.46237 301.35007 514.0625 303.75 C 511.7957 306.01673 508.93529 307.12507 505.46875 307.125 C 502.00196 307.12507 499.05613 306.01673 496.65625 303.75 C 494.38947 301.35007 493.24989 298.40424 493.25 294.9375 C 493.24989 291.47091 494.38947 288.6105 496.65625 286.34375 C 499.05613 284.07717 502.00196 282.93759 505.46875 282.9375 z M 673 313.34375 C 676.4666 313.34381 679.32701 314.53756 681.59375 316.9375 C 683.99368 319.20422 685.18743 322.06463 685.1875 325.53125 C 685.18743 328.99796 683.99368 331.94379 681.59375 334.34375 C 679.32701 336.61045 676.4666 337.75003 673 337.75 C 669.53327 337.75003 666.58744 336.61045 664.1875 334.34375 C 661.92078 331.94379 660.7812 328.99796 660.78125 325.53125 C 660.7812 322.06463 661.92078 319.20422 664.1875 316.9375 C 666.58744 314.53756 669.53327 313.34381 673 313.34375 z "
           inkscape:radius="3.0582964"
           sodipodi:type="inkscape:offset" />
        <text
           sodipodi:linespacing="100%"
           id="text3745"
           y="372.33911"
           x="473.08698"
           style="font-size:197.83482361px;font-style:normal;font-variant:normal;font-weight:bold;font-stretch:normal;text-align:center;line-height:100%;writing-mode:lr-tb;text-anchor:middle;fill:#000000;fill-opacity:1;fill-rule:nonzero;stroke:none;font-family:Impact;-inkscape-font-specification:Impact Bold"
           xml:space="preserve"><tspan
             style="font-size:200px;font-style:normal;font-variant:normal;font-weight:normal;font-stretch:normal;text-align:center;line-height:100%;writing-mode:lr-tb;text-anchor:middle;fill:#000000;font-family:Lein Bold;-inkscape-font-specification:'Lein Bold,'"
             y="372.33911"
             x="473.08698"
             id="tspan3747"
             sodipodi:role="line"><tspan
               id="tspan3749"
               style="font-size:200px;font-style:normal;font-variant:normal;font-weight:normal;font-stretch:normal;text-align:center;line-height:100%;writing-mode:lr-tb;text-anchor:middle;fill:#550000;font-family:Lein Bold;-inkscape-font-specification:'Lein Bold,'">M</tspan><tspan
               id="tspan3751"
               style="font-size:200px;font-style:normal;font-variant:normal;font-weight:normal;font-stretch:normal;text-align:center;line-height:100%;writing-mode:lr-tb;text-anchor:middle;fill:#ff6600;font-family:Lein Bold;-inkscape-font-specification:'Lein Bold,'"><tspan
   id="tspan3753"
   style="fill:#ffcc00">E</tspan>T</tspan><tspan
               id="tspan3755"
               style="font-size:200px;font-style:normal;font-variant:normal;font-weight:normal;font-stretch:normal;text-align:center;line-height:100%;writing-mode:lr-tb;text-anchor:middle;fill:#0066ff;font-family:Lein Bold;-inkscape-font-specification:'Lein Bold,'">A</tspan></tspan></text>
      </g>
      <path
         style="color:#000000;fill:#7f4040;fill-opacity:1;fill-rule:nonzero;stroke:none;stroke-width:0.10544282px;marker:none;visibility:visible;display:inline;overflow:visible;enable-background:accumulate"
         d="m 69.734998,58.575946 0,-3.171638 3.084203,0.03562 3.084202,0.03562 0.685379,0.297769 c 0.376958,0.163774 0.732827,0.295633 0.790821,0.293021 0.05799,-0.0026 0.520361,-0.150342 1.027483,-0.32829 1.749832,-0.614009 3.314678,-0.516616 4.993021,0.310759 0.880332,0.433978 2.001862,1.415084 2.389778,2.090559 l 0.185743,0.323432 -0.607515,0.228306 c -2.218768,0.833821 -6.976483,1.919346 -10.835466,2.472231 -1.070654,0.153394 -4.536941,0.582113 -4.718566,0.583603 -0.0435,3.57e-4 -0.07908,-1.426588 -0.07908,-3.17099 z"
         id="path3757" />
    </g>
    <g
       transform="translate(122.99998,0.73468612)"
       id="g3759">
      <g
         transform="matrix(0.09247284,0,0,0.09247284,52.091739,33.966404)"
         id="g3761">
        <path
           sodipodi:type="inkscape:offset"
           inkscape:radius="3.0582964"
           inkscape:original="M 308 231.53125 C 301.73322 231.53139 295.73322 232.33764 290 233.9375 C 284.26657 235.4043 278.84782 237.54388 273.78125 240.34375 C 271.9145 238.87722 269.527 237.54388 266.59375 236.34375 C 264.06034 235.27722 260.86659 234.33139 257 233.53125 C 253.13327 232.73139 248.38119 232.34389 242.78125 232.34375 L 191 232.34375 L 191 301.9375 L 190.1875 372.34375 L 231.78125 372.34375 C 231.7812 368.87709 232.92079 365.93126 235.1875 363.53125 C 237.45411 360.99793 240.31453 359.75001 243.78125 359.75 C 247.24785 359.75001 250.13952 360.99793 252.40625 363.53125 C 254.80618 365.93126 255.99993 368.87709 256 372.34375 L 300 371.53125 C 299.99989 368.06459 301.13947 365.25834 303.40625 363.125 C 305.6728 360.85834 308.53321 359.75001 312 359.75 C 315.46654 359.75001 318.32695 360.85834 320.59375 363.125 C 322.99361 365.25834 324.18736 368.06459 324.1875 371.53125 L 376.78125 371.53125 L 377.59375 301.125 C 377.59356 291.52508 375.73314 282.52509 372 274.125 C 368.39982 265.59177 363.45399 258.20428 357.1875 251.9375 C 350.92067 245.53763 343.53317 240.53763 335 236.9375 C 326.59986 233.33764 317.59987 231.53139 308 231.53125 z M 457.46875 231.9375 C 447.86868 231.93764 438.78328 233.79806 430.25 237.53125 C 421.71663 241.13138 414.27497 246.13138 407.875 252.53125 C 401.60831 258.93136 396.60832 266.40427 392.875 274.9375 C 389.27499 283.33759 387.46875 292.33758 387.46875 301.9375 C 387.46875 311.67089 389.27499 320.81047 392.875 329.34375 C 396.60832 337.87712 401.60831 345.35003 407.875 351.75 C 414.27497 358.15001 421.71663 363.20418 430.25 366.9375 C 438.78328 370.5375 447.86868 372.34375 457.46875 372.34375 L 527.46875 372.34375 L 527.46875 326.9375 C 524.00194 326.93755 520.86236 325.79796 518.0625 323.53125 C 515.26237 321.1313 513.87487 318.21672 513.875 314.75 L 527.46875 314.75 L 527.65625 301.9375 C 527.6561 292.33758 525.79569 283.33759 522.0625 274.9375 C 518.46236 266.40427 513.46237 258.93136 507.0625 252.53125 C 500.79571 246.13138 493.40822 241.13138 484.875 237.53125 C 476.34157 233.79806 467.202 231.93764 457.46875 231.9375 z M 685.59375 231.9375 C 675.99368 231.93764 666.90828 233.79806 658.375 237.53125 C 649.84163 241.13138 642.39997 246.13138 636 252.53125 C 629.73331 258.93136 624.73332 266.40427 621 274.9375 C 617.39999 283.33759 615.59375 292.33758 615.59375 301.9375 C 615.59374 311.67089 617.39999 320.81047 621 329.34375 C 624.73332 337.87712 629.73331 345.35003 636 351.75 C 642.39997 358.15001 649.84163 363.20418 658.375 366.9375 C 666.90828 370.5375 675.99368 372.34375 685.59375 372.34375 L 755.1875 372.34375 L 755.78125 301.9375 C 755.7811 292.33758 753.92069 283.33759 750.1875 274.9375 C 746.58736 266.40427 741.58737 258.93136 735.1875 252.53125 C 728.92072 246.13138 721.53322 241.13138 713 237.53125 C 704.46657 233.79806 695.327 231.93764 685.59375 231.9375 z M 537.84375 232.53125 L 537.84375 311.53125 C 537.84375 320.19797 539.45624 328.33754 542.65625 335.9375 C 545.85624 343.4042 550.24373 349.93127 555.84375 355.53125 C 561.44372 361.13126 567.9708 365.55001 575.4375 368.75 C 583.03745 371.95 591.17702 373.53125 599.84375 373.53125 L 599.4375 305.75 L 594.4375 305.75 L 594.4375 299.34375 C 597.5041 299.34382 600.1166 298.34382 602.25 296.34375 C 604.5166 294.21049 605.65618 291.598 605.65625 288.53125 C 605.65618 285.46467 604.5166 282.93759 602.25 280.9375 C 600.1166 278.93759 597.5041 277.93759 594.4375 277.9375 L 594.4375 232.53125 L 537.84375 232.53125 z M 505.46875 282.9375 C 508.93529 282.93759 511.7957 284.07717 514.0625 286.34375 C 516.46237 288.6105 517.65611 291.47091 517.65625 294.9375 C 517.65611 298.40424 516.46237 301.35007 514.0625 303.75 C 511.7957 306.01673 508.93529 307.12507 505.46875 307.125 C 502.00196 307.12507 499.05613 306.01673 496.65625 303.75 C 494.38947 301.35007 493.24989 298.40424 493.25 294.9375 C 493.24989 291.47091 494.38947 288.6105 496.65625 286.34375 C 499.05613 284.07717 502.00196 282.93759 505.46875 282.9375 z M 673 313.34375 C 676.4666 313.34381 679.32701 314.53756 681.59375 316.9375 C 683.99368 319.20422 685.18743 322.06463 685.1875 325.53125 C 685.18743 328.99796 683.99368 331.94379 681.59375 334.34375 C 679.32701 336.61045 676.4666 337.75003 673 337.75 C 669.53327 337.75003 666.58744 336.61045 664.1875 334.34375 C 661.92078 331.94379 660.7812 328.99796 660.78125 325.53125 C 660.7812 322.06463 661.92078 319.20422 664.1875 316.9375 C 666.58744 314.53756 669.53327 313.34381 673 313.34375 z "
           xlink:href="#text4366"
           style="font-size:89.35980225px;font-style:normal;font-variant:normal;font-weight:bold;font-stretch:normal;text-align:center;line-height:100%;writing-mode:lr-tb;text-anchor:middle;fill:#000000;fill-opacity:1;fill-rule:nonzero;stroke:none;font-family:Impact;-inkscape-font-specification:Impact Bold"
           id="path3763"
           inkscape:href="#text4366"
           d="m 308,228.46875 c -6.50563,1.5e-4 -12.76051,0.83514 -18.75,2.5 -0.0225,0.006 -0.04,0.0255 -0.0625,0.0312 -5.3364,1.37052 -10.38886,3.35657 -15.1875,5.84375 -1.81866,-1.21342 -3.82702,-2.33143 -6.21875,-3.3125 -0.008,-0.004 -0.0229,0.004 -0.0312,0 -2.77974,-1.16765 -6.12938,-2.17316 -10.125,-3 -4.1616,-0.86086 -9.10277,-1.24986 -14.84375,-1.25 l -51.78125,0 a 3.0586023,3.0586023 0 0 0 -3.0625,3.0625 l 0,69.5625 0,0.0312 -0.8125,70.375 a 3.0586023,3.0586023 0 0 0 3.0625,3.09375 l 41.59375,0 a 3.0586023,3.0586023 0 0 0 3.0625,-3.0625 c -4e-5,-2.7964 0.80221,-4.85495 2.5625,-6.71875 a 3.0586023,3.0586023 0 0 0 0.0625,-0.0625 c 1.74685,-1.9524 3.57971,-2.74999 6.3125,-2.75 2.73265,10e-6 4.60607,0.80795 6.34375,2.75 a 3.0586023,3.0586023 0 0 0 0.125,0.125 c 1.87371,1.87377 2.68744,3.89164 2.6875,6.65625 a 3.0586023,3.0586023 0 0 0 3.125,3.0625 l 44,-0.8125 a 3.0586023,3.0586023 0 0 0 3,-3.0625 c -9e-5,-2.79638 0.77293,-4.62092 2.4375,-6.1875 a 3.0586023,3.0586023 0 0 0 0.0625,-0.0625 c 1.70932,-1.7094 3.62253,-2.46874 6.4375,-2.46875 2.81467,10e-6 4.72786,0.75922 6.4375,2.46875 a 3.0586023,3.0586023 0 0 0 0.125,0.125 c 1.78091,1.58313 2.56239,3.36036 2.5625,6.125 a 3.0586023,3.0586023 0 0 0 3.0625,3.0625 l 52.59375,0 a 3.0586023,3.0586023 0 0 0 3.0625,-3.03125 l 0.8125,-70.40625 a 3.0586023,3.0586023 0 0 0 0,-0.0312 c -2e-4,-9.97084 -1.95342,-19.40927 -5.84375,-28.1875 -0.009,-0.0217 -0.0221,-0.0408 -0.0312,-0.0625 -3.73623,-8.8336 -8.88977,-16.53758 -15.40625,-23.0625 -0.0104,-0.0106 -0.0209,-0.0207 -0.0312,-0.0312 -6.53729,-6.66765 -14.26493,-11.91432 -23.125,-15.65625 -0.009,-0.004 -0.0222,0.004 -0.0312,0 -8.77898,-3.7578 -18.21427,-5.6561 -28.1875,-5.65625 z m 149.46875,0.40625 c -9.98508,1.5e-4 -19.49227,1.94848 -28.40625,5.84375 -0.009,0.004 -0.0223,-0.004 -0.0312,0 -8.87018,3.74605 -16.64409,8.98794 -23.3125,15.65625 a 3.0586023,3.0586023 0 0 0 -0.0312,0.0312 c -6.53035,6.66938 -11.75257,14.46131 -15.625,23.3125 -3.76567,8.78663 -5.65625,18.23521 -5.65625,28.21875 0,10.11175 1.89465,19.67745 5.65625,28.59375 a 3.0586023,3.0586023 0 0 0 0,0.0312 c 3.87243,8.85134 9.09463,16.64324 15.625,23.3125 a 3.0586023,3.0586023 0 0 0 0.0312,0.0312 c 6.66888,6.66892 14.4487,11.96587 23.3125,15.84375 a 3.0586023,3.0586023 0 0 0 0.0312,0 c 8.91203,3.75979 18.42257,5.65625 28.40625,5.65625 l 70,0 a 3.0586023,3.0586023 0 0 0 3.0625,-3.0625 l 0,-45.40625 a 3.0586023,3.0586023 0 0 0 -3.0625,-3.0625 c -2.78739,4e-5 -5.12435,-0.85307 -7.4375,-2.71875 -0.006,-0.005 -0.0255,0.005 -0.0312,0 -1.22264,-1.06232 -1.96448,-2.16817 -2.4375,-3.34375 l 9.90625,0 a 3.0586023,3.0586023 0 0 0 3.0625,-3.03125 l 0.1875,-12.8125 a 3.0586023,3.0586023 0 0 0 0,-0.0312 c -1.6e-4,-9.97085 -1.95337,-19.40926 -5.84375,-28.1875 -0.009,-0.0216 -0.0221,-0.0409 -0.0312,-0.0625 -3.738,-8.8378 -8.9466,-16.62578 -15.59375,-23.28125 -0.0104,-0.0106 -0.0209,-0.0207 -0.0312,-0.0312 -6.53725,-6.66765 -14.26488,-11.91432 -23.125,-15.65625 -0.009,-0.004 -0.0223,0.004 -0.0312,0 -8.91859,-3.89718 -18.48099,-5.8436 -28.59375,-5.84375 z m 228.125,0 c -9.98508,1.5e-4 -19.49227,1.94848 -28.40625,5.84375 -0.009,0.004 -0.0223,-0.004 -0.0312,0 -8.87018,3.74605 -16.64409,8.98794 -23.3125,15.65625 a 3.0586023,3.0586023 0 0 0 -0.0312,0.0312 c -6.53035,6.66938 -11.75257,14.46131 -15.625,23.3125 -3.76567,8.78663 -5.65625,18.23521 -5.65625,28.21875 -10e-6,10.11175 1.89465,19.67745 5.65625,28.59375 a 3.0586023,3.0586023 0 0 0 0,0.0312 c 3.87243,8.85134 9.09463,16.64324 15.625,23.3125 a 3.0586023,3.0586023 0 0 0 0.0312,0.0312 c 6.66888,6.66892 14.4487,11.96587 23.3125,15.84375 a 3.0586023,3.0586023 0 0 0 0.0312,0 c 8.91203,3.75979 18.42257,5.65625 28.40625,5.65625 l 69.59375,0 A 3.0586023,3.0586023 0 0 0 758.25,372.375 l 0.59375,-70.40625 a 3.0586023,3.0586023 0 0 0 0,-0.0312 C 758.84359,291.96665 756.89038,282.52824 753,273.75 c -0.009,-0.0216 -0.0221,-0.0409 -0.0312,-0.0625 -3.738,-8.8378 -8.9466,-16.62578 -15.59375,-23.28125 -0.0104,-0.0106 -0.0209,-0.0207 -0.0312,-0.0312 -6.53725,-6.66766 -14.26488,-11.91432 -23.125,-15.65625 -0.009,-0.004 -0.0223,0.004 -0.0312,0 -8.91859,-3.89718 -18.48099,-5.8436 -28.59375,-5.84375 z m -147.75,0.59375 a 3.0586023,3.0586023 0 0 0 -3.0625,3.0625 l 0,79 c 0,9.04606 1.70202,17.61267 5.0625,25.59375 a 3.0586023,3.0586023 0 0 0 0,0.0312 c 3.3445,7.80388 7.96831,14.65585 13.84375,20.53125 5.87136,5.87141 12.72074,10.52766 20.53125,13.875 a 3.0586023,3.0586023 0 0 0 0.0312,0 c 7.98763,3.36324 16.55503,5.03125 25.59375,5.03125 A 3.0586023,3.0586023 0 0 0 602.90625,373.5 L 602.5,305.71875 a 3.0586023,3.0586023 0 0 0 -3.0625,-3.03125 l -1.9375,0 0,-0.625 c 2.55886,-0.52574 4.92131,-1.6977 6.84375,-3.5 2.8015,-2.6367 4.37491,-6.20691 4.375,-10.03125 -9e-5,-3.79393 -1.57356,-7.3068 -4.375,-9.8125 -0.0215,-0.0202 -0.0409,-0.0425 -0.0625,-0.0625 -1.9104,-1.76841 -4.25112,-2.91761 -6.78125,-3.4375 l 0,-42.6875 a 3.0586023,3.0586023 0 0 0 -3.0625,-3.0625 l -56.59375,0 z M 505.46875,286 c 2.79633,7e-5 4.71792,0.78059 6.4375,2.5 a 3.0586023,3.0586023 0 0 0 0.0625,0.0625 c 1.83423,1.73248 2.62489,3.61044 2.625,6.375 -1.1e-4,2.76475 -0.81388,4.78258 -2.6875,6.65625 -1.70964,1.70959 -3.62287,2.46881 -6.4375,2.46875 -2.78087,6e-5 -4.8206,-0.76227 -6.65625,-2.46875 -1.71633,-1.84573 -2.50009,-3.89361 -2.5,-6.65625 -9e-5,-2.76058 0.76333,-4.67241 2.4375,-6.375 0.0113,-0.0106 0.02,-0.0207 0.0312,-0.0312 0.0109,-0.011 0.0203,-0.0203 0.0312,-0.0312 1.84569,-1.71617 3.89345,-2.49993 6.65625,-2.5 z M 673,316.40625 c 2.76453,5e-5 4.64253,0.79072 6.375,2.625 a 3.0586023,3.0586023 0 0 0 0.125,0.125 c 1.83426,1.73245 2.62494,3.61044 2.625,6.375 -6e-5,2.76467 -0.81381,4.78254 -2.6875,6.65625 -1.7195,1.71947 -3.64115,2.50002 -6.4375,2.5 -2.76267,2e-5 -4.8105,-0.78372 -6.65625,-2.5 -1.7163,-1.84578 -2.50004,-3.89361 -2.5,-6.65625 -4e-5,-2.79636 0.78053,-4.71803 2.5,-6.4375 1.87368,-1.87368 3.89156,-2.68745 6.65625,-2.6875 z" />
        <text
           xml:space="preserve"
           style="font-size:197.83482361px;font-style:normal;font-variant:normal;font-weight:bold;font-stretch:normal;text-align:center;line-height:100%;writing-mode:lr-tb;text-anchor:middle;fill:#000000;fill-opacity:1;fill-rule:nonzero;stroke:none;font-family:Impact;-inkscape-font-specification:Impact Bold"
           x="473.08698"
           y="372.33911"
           id="text3765"
           sodipodi:linespacing="100%"><tspan
             sodipodi:role="line"
             id="tspan3767"
             x="473.08698"
             y="372.33911"
             style="font-size:200px;font-style:normal;font-variant:normal;font-weight:normal;font-stretch:normal;text-align:center;line-height:100%;writing-mode:lr-tb;text-anchor:middle;fill:#000000;font-family:Lein Bold;-inkscape-font-specification:'Lein Bold,'"><tspan
               style="font-size:200px;font-style:normal;font-variant:normal;font-weight:normal;font-stretch:normal;text-align:center;line-height:100%;writing-mode:lr-tb;text-anchor:middle;fill:#550000;font-family:Lein Bold;-inkscape-font-specification:'Lein Bold,'"
               id="tspan3769">M</tspan><tspan
               style="font-size:200px;font-style:normal;font-variant:normal;font-weight:normal;font-stretch:normal;text-align:center;line-height:100%;writing-mode:lr-tb;text-anchor:middle;fill:#ff6600;font-family:Lein Bold;-inkscape-font-specification:'Lein Bold,'"
               id="tspan3771"><tspan
   style="fill:#ffcc00"
   id="tspan3773">E</tspan>T</tspan><tspan
               style="font-size:200px;font-style:normal;font-variant:normal;font-weight:normal;font-stretch:normal;text-align:center;line-height:100%;writing-mode:lr-tb;text-anchor:middle;fill:#0066ff;font-family:Lein Bold;-inkscape-font-specification:'Lein Bold,'"
               id="tspan3775">A</tspan></tspan></text>
      </g>
      <path
         id="path3777"
         d="m 69.734998,58.575946 0,-3.171638 3.084203,0.03562 3.084202,0.03562 0.685379,0.297769 c 0.376958,0.163774 0.732827,0.295633 0.790821,0.293021 0.05799,-0.0026 0.520361,-0.150342 1.027483,-0.32829 1.749832,-0.614009 3.314678,-0.516616 4.993021,0.310759 0.880332,0.433978 2.001862,1.415084 2.389778,2.090559 l 0.185743,0.323432 -0.607515,0.228306 c -2.218768,0.833821 -6.976483,1.919346 -10.835466,2.472231 -1.070654,0.153394 -4.536941,0.582113 -4.718566,0.583603 -0.0435,3.57e-4 -0.07908,-1.426588 -0.07908,-3.17099 z"
         style="color:#000000;fill:#7f4040;fill-opacity:1;fill-rule:nonzero;stroke:none;stroke-width:0.10544282px;marker:none;visibility:visible;display:inline;overflow:visible;enable-background:accumulate" />
    </g>
    <g
       id="g3779"
       transform="translate(178.49998,0.73468612)">
      <g
         id="g3781"
         transform="matrix(0.09247284,0,0,0.09247284,52.091739,33.966404)">
        <path
           d="m 308,228.46875 c -6.50563,1.5e-4 -12.76051,0.83514 -18.75,2.5 -0.0225,0.006 -0.04,0.0255 -0.0625,0.0312 -5.3364,1.37052 -10.38886,3.35657 -15.1875,5.84375 -1.81866,-1.21342 -3.82702,-2.33143 -6.21875,-3.3125 -0.008,-0.004 -0.0229,0.004 -0.0312,0 -2.77974,-1.16765 -6.12938,-2.17316 -10.125,-3 -4.1616,-0.86086 -9.10277,-1.24986 -14.84375,-1.25 l -51.78125,0 a 3.0586023,3.0586023 0 0 0 -3.0625,3.0625 l 0,69.5625 0,0.0312 -0.8125,70.375 a 3.0586023,3.0586023 0 0 0 3.0625,3.09375 l 41.59375,0 a 3.0586023,3.0586023 0 0 0 3.0625,-3.0625 c -4e-5,-2.7964 0.80221,-4.85495 2.5625,-6.71875 a 3.0586023,3.0586023 0 0 0 0.0625,-0.0625 c 1.74685,-1.9524 3.57971,-2.74999 6.3125,-2.75 2.73265,10e-6 4.60607,0.80795 6.34375,2.75 a 3.0586023,3.0586023 0 0 0 0.125,0.125 c 1.87371,1.87377 2.68744,3.89164 2.6875,6.65625 a 3.0586023,3.0586023 0 0 0 3.125,3.0625 l 44,-0.8125 a 3.0586023,3.0586023 0 0 0 3,-3.0625 c -9e-5,-2.79638 0.77293,-4.62092 2.4375,-6.1875 a 3.0586023,3.0586023 0 0 0 0.0625,-0.0625 c 1.70932,-1.7094 3.62253,-2.46874 6.4375,-2.46875 2.81467,10e-6 4.72786,0.75922 6.4375,2.46875 a 3.0586023,3.0586023 0 0 0 0.125,0.125 c 1.78091,1.58313 2.56239,3.36036 2.5625,6.125 a 3.0586023,3.0586023 0 0 0 3.0625,3.0625 l 52.59375,0 a 3.0586023,3.0586023 0 0 0 3.0625,-3.03125 l 0.8125,-70.40625 a 3.0586023,3.0586023 0 0 0 0,-0.0312 c -2e-4,-9.97084 -1.95342,-19.40927 -5.84375,-28.1875 -0.009,-0.0217 -0.0221,-0.0408 -0.0312,-0.0625 -3.73623,-8.8336 -8.88977,-16.53758 -15.40625,-23.0625 -0.0104,-0.0106 -0.0209,-0.0207 -0.0312,-0.0312 -6.53729,-6.66765 -14.26493,-11.91432 -23.125,-15.65625 -0.009,-0.004 -0.0222,0.004 -0.0312,0 -8.77898,-3.7578 -18.21427,-5.6561 -28.1875,-5.65625 z m 149.46875,0.40625 c -9.98508,1.5e-4 -19.49227,1.94848 -28.40625,5.84375 -0.009,0.004 -0.0223,-0.004 -0.0312,0 -8.87018,3.74605 -16.64409,8.98794 -23.3125,15.65625 a 3.0586023,3.0586023 0 0 0 -0.0312,0.0312 c -6.53035,6.66938 -11.75257,14.46131 -15.625,23.3125 -3.76567,8.78663 -5.65625,18.23521 -5.65625,28.21875 0,10.11175 1.89465,19.67745 5.65625,28.59375 a 3.0586023,3.0586023 0 0 0 0,0.0312 c 3.87243,8.85134 9.09463,16.64324 15.625,23.3125 a 3.0586023,3.0586023 0 0 0 0.0312,0.0312 c 6.66888,6.66892 14.4487,11.96587 23.3125,15.84375 a 3.0586023,3.0586023 0 0 0 0.0312,0 c 8.91203,3.75979 18.42257,5.65625 28.40625,5.65625 l 70,0 a 3.0586023,3.0586023 0 0 0 3.0625,-3.0625 l 0,-45.40625 a 3.0586023,3.0586023 0 0 0 -3.0625,-3.0625 c -2.78739,4e-5 -5.12435,-0.85307 -7.4375,-2.71875 -0.006,-0.005 -0.0255,0.005 -0.0312,0 -1.22264,-1.06232 -1.96448,-2.16817 -2.4375,-3.34375 l 9.90625,0 a 3.0586023,3.0586023 0 0 0 3.0625,-3.03125 l 0.1875,-12.8125 a 3.0586023,3.0586023 0 0 0 0,-0.0312 c -1.6e-4,-9.97085 -1.95337,-19.40926 -5.84375,-28.1875 -0.009,-0.0216 -0.0221,-0.0409 -0.0312,-0.0625 -3.738,-8.8378 -8.9466,-16.62578 -15.59375,-23.28125 -0.0104,-0.0106 -0.0209,-0.0207 -0.0312,-0.0312 -6.53725,-6.66765 -14.26488,-11.91432 -23.125,-15.65625 -0.009,-0.004 -0.0223,0.004 -0.0312,0 -8.91859,-3.89718 -18.48099,-5.8436 -28.59375,-5.84375 z m 228.125,0 c -9.98508,1.5e-4 -19.49227,1.94848 -28.40625,5.84375 -0.009,0.004 -0.0223,-0.004 -0.0312,0 -8.87018,3.74605 -16.64409,8.98794 -23.3125,15.65625 a 3.0586023,3.0586023 0 0 0 -0.0312,0.0312 c -6.53035,6.66938 -11.75257,14.46131 -15.625,23.3125 -3.76567,8.78663 -5.65625,18.23521 -5.65625,28.21875 -10e-6,10.11175 1.89465,19.67745 5.65625,28.59375 a 3.0586023,3.0586023 0 0 0 0,0.0312 c 3.87243,8.85134 9.09463,16.64324 15.625,23.3125 a 3.0586023,3.0586023 0 0 0 0.0312,0.0312 c 6.66888,6.66892 14.4487,11.96587 23.3125,15.84375 a 3.0586023,3.0586023 0 0 0 0.0312,0 c 8.91203,3.75979 18.42257,5.65625 28.40625,5.65625 l 69.59375,0 A 3.0586023,3.0586023 0 0 0 758.25,372.375 l 0.59375,-70.40625 a 3.0586023,3.0586023 0 0 0 0,-0.0312 C 758.84359,291.96665 756.89038,282.52824 753,273.75 c -0.009,-0.0216 -0.0221,-0.0409 -0.0312,-0.0625 -3.738,-8.8378 -8.9466,-16.62578 -15.59375,-23.28125 -0.0104,-0.0106 -0.0209,-0.0207 -0.0312,-0.0312 -6.53725,-6.66766 -14.26488,-11.91432 -23.125,-15.65625 -0.009,-0.004 -0.0223,0.004 -0.0312,0 -8.91859,-3.89718 -18.48099,-5.8436 -28.59375,-5.84375 z m -147.75,0.59375 a 3.0586023,3.0586023 0 0 0 -3.0625,3.0625 l 0,79 c 0,9.04606 1.70202,17.61267 5.0625,25.59375 a 3.0586023,3.0586023 0 0 0 0,0.0312 c 3.3445,7.80388 7.96831,14.65585 13.84375,20.53125 5.87136,5.87141 12.72074,10.52766 20.53125,13.875 a 3.0586023,3.0586023 0 0 0 0.0312,0 c 7.98763,3.36324 16.55503,5.03125 25.59375,5.03125 A 3.0586023,3.0586023 0 0 0 602.90625,373.5 L 602.5,305.71875 a 3.0586023,3.0586023 0 0 0 -3.0625,-3.03125 l -1.9375,0 0,-0.625 c 2.55886,-0.52574 4.92131,-1.6977 6.84375,-3.5 2.8015,-2.6367 4.37491,-6.20691 4.375,-10.03125 -9e-5,-3.79393 -1.57356,-7.3068 -4.375,-9.8125 -0.0215,-0.0202 -0.0409,-0.0425 -0.0625,-0.0625 -1.9104,-1.76841 -4.25112,-2.91761 -6.78125,-3.4375 l 0,-42.6875 a 3.0586023,3.0586023 0 0 0 -3.0625,-3.0625 l -56.59375,0 z M 505.46875,286 c 2.79633,7e-5 4.71792,0.78059 6.4375,2.5 a 3.0586023,3.0586023 0 0 0 0.0625,0.0625 c 1.83423,1.73248 2.62489,3.61044 2.625,6.375 -1.1e-4,2.76475 -0.81388,4.78258 -2.6875,6.65625 -1.70964,1.70959 -3.62287,2.46881 -6.4375,2.46875 -2.78087,6e-5 -4.8206,-0.76227 -6.65625,-2.46875 -1.71633,-1.84573 -2.50009,-3.89361 -2.5,-6.65625 -9e-5,-2.76058 0.76333,-4.67241 2.4375,-6.375 0.0113,-0.0106 0.02,-0.0207 0.0312,-0.0312 0.0109,-0.011 0.0203,-0.0203 0.0312,-0.0312 1.84569,-1.71617 3.89345,-2.49993 6.65625,-2.5 z M 673,316.40625 c 2.76453,5e-5 4.64253,0.79072 6.375,2.625 a 3.0586023,3.0586023 0 0 0 0.125,0.125 c 1.83426,1.73245 2.62494,3.61044 2.625,6.375 -6e-5,2.76467 -0.81381,4.78254 -2.6875,6.65625 -1.7195,1.71947 -3.64115,2.50002 -6.4375,2.5 -2.76267,2e-5 -4.8105,-0.78372 -6.65625,-2.5 -1.7163,-1.84578 -2.50004,-3.89361 -2.5,-6.65625 -4e-5,-2.79636 0.78053,-4.71803 2.5,-6.4375 1.87368,-1.87368 3.89156,-2.68745 6.65625,-2.6875 z"
           inkscape:href="#text4366"
           id="path3783"
           style="font-size:89.35980225px;font-style:normal;font-variant:normal;font-weight:bold;font-stretch:normal;text-align:center;line-height:100%;writing-mode:lr-tb;text-anchor:middle;fill:#000000;fill-opacity:1;fill-rule:nonzero;stroke:none;font-family:Impact;-inkscape-font-specification:Impact Bold"
           xlink:href="#text4366"
           inkscape:original="M 308 231.53125 C 301.73322 231.53139 295.73322 232.33764 290 233.9375 C 284.26657 235.4043 278.84782 237.54388 273.78125 240.34375 C 271.9145 238.87722 269.527 237.54388 266.59375 236.34375 C 264.06034 235.27722 260.86659 234.33139 257 233.53125 C 253.13327 232.73139 248.38119 232.34389 242.78125 232.34375 L 191 232.34375 L 191 301.9375 L 190.1875 372.34375 L 231.78125 372.34375 C 231.7812 368.87709 232.92079 365.93126 235.1875 363.53125 C 237.45411 360.99793 240.31453 359.75001 243.78125 359.75 C 247.24785 359.75001 250.13952 360.99793 252.40625 363.53125 C 254.80618 365.93126 255.99993 368.87709 256 372.34375 L 300 371.53125 C 299.99989 368.06459 301.13947 365.25834 303.40625 363.125 C 305.6728 360.85834 308.53321 359.75001 312 359.75 C 315.46654 359.75001 318.32695 360.85834 320.59375 363.125 C 322.99361 365.25834 324.18736 368.06459 324.1875 371.53125 L 376.78125 371.53125 L 377.59375 301.125 C 377.59356 291.52508 375.73314 282.52509 372 274.125 C 368.39982 265.59177 363.45399 258.20428 357.1875 251.9375 C 350.92067 245.53763 343.53317 240.53763 335 236.9375 C 326.59986 233.33764 317.59987 231.53139 308 231.53125 z M 457.46875 231.9375 C 447.86868 231.93764 438.78328 233.79806 430.25 237.53125 C 421.71663 241.13138 414.27497 246.13138 407.875 252.53125 C 401.60831 258.93136 396.60832 266.40427 392.875 274.9375 C 389.27499 283.33759 387.46875 292.33758 387.46875 301.9375 C 387.46875 311.67089 389.27499 320.81047 392.875 329.34375 C 396.60832 337.87712 401.60831 345.35003 407.875 351.75 C 414.27497 358.15001 421.71663 363.20418 430.25 366.9375 C 438.78328 370.5375 447.86868 372.34375 457.46875 372.34375 L 527.46875 372.34375 L 527.46875 326.9375 C 524.00194 326.93755 520.86236 325.79796 518.0625 323.53125 C 515.26237 321.1313 513.87487 318.21672 513.875 314.75 L 527.46875 314.75 L 527.65625 301.9375 C 527.6561 292.33758 525.79569 283.33759 522.0625 274.9375 C 518.46236 266.40427 513.46237 258.93136 507.0625 252.53125 C 500.79571 246.13138 493.40822 241.13138 484.875 237.53125 C 476.34157 233.79806 467.202 231.93764 457.46875 231.9375 z M 685.59375 231.9375 C 675.99368 231.93764 666.90828 233.79806 658.375 237.53125 C 649.84163 241.13138 642.39997 246.13138 636 252.53125 C 629.73331 258.93136 624.73332 266.40427 621 274.9375 C 617.39999 283.33759 615.59375 292.33758 615.59375 301.9375 C 615.59374 311.67089 617.39999 320.81047 621 329.34375 C 624.73332 337.87712 629.73331 345.35003 636 351.75 C 642.39997 358.15001 649.84163 363.20418 658.375 366.9375 C 666.90828 370.5375 675.99368 372.34375 685.59375 372.34375 L 755.1875 372.34375 L 755.78125 301.9375 C 755.7811 292.33758 753.92069 283.33759 750.1875 274.9375 C 746.58736 266.40427 741.58737 258.93136 735.1875 252.53125 C 728.92072 246.13138 721.53322 241.13138 713 237.53125 C 704.46657 233.79806 695.327 231.93764 685.59375 231.9375 z M 537.84375 232.53125 L 537.84375 311.53125 C 537.84375 320.19797 539.45624 328.33754 542.65625 335.9375 C 545.85624 343.4042 550.24373 349.93127 555.84375 355.53125 C 561.44372 361.13126 567.9708 365.55001 575.4375 368.75 C 583.03745 371.95 591.17702 373.53125 599.84375 373.53125 L 599.4375 305.75 L 594.4375 305.75 L 594.4375 299.34375 C 597.5041 299.34382 600.1166 298.34382 602.25 296.34375 C 604.5166 294.21049 605.65618 291.598 605.65625 288.53125 C 605.65618 285.46467 604.5166 282.93759 602.25 280.9375 C 600.1166 278.93759 597.5041 277.93759 594.4375 277.9375 L 594.4375 232.53125 L 537.84375 232.53125 z M 505.46875 282.9375 C 508.93529 282.93759 511.7957 284.07717 514.0625 286.34375 C 516.46237 288.6105 517.65611 291.47091 517.65625 294.9375 C 517.65611 298.40424 516.46237 301.35007 514.0625 303.75 C 511.7957 306.01673 508.93529 307.12507 505.46875 307.125 C 502.00196 307.12507 499.05613 306.01673 496.65625 303.75 C 494.38947 301.35007 493.24989 298.40424 493.25 294.9375 C 493.24989 291.47091 494.38947 288.6105 496.65625 286.34375 C 499.05613 284.07717 502.00196 282.93759 505.46875 282.9375 z M 673 313.34375 C 676.4666 313.34381 679.32701 314.53756 681.59375 316.9375 C 683.99368 319.20422 685.18743 322.06463 685.1875 325.53125 C 685.18743 328.99796 683.99368 331.94379 681.59375 334.34375 C 679.32701 336.61045 676.4666 337.75003 673 337.75 C 669.53327 337.75003 666.58744 336.61045 664.1875 334.34375 C 661.92078 331.94379 660.7812 328.99796 660.78125 325.53125 C 660.7812 322.06463 661.92078 319.20422 664.1875 316.9375 C 666.58744 314.53756 669.53327 313.34381 673 313.34375 z "
           inkscape:radius="3.0582964"
           sodipodi:type="inkscape:offset" />
        <text
           sodipodi:linespacing="100%"
           id="text3785"
           y="372.33911"
           x="473.08698"
           style="font-size:197.83482361px;font-style:normal;font-variant:normal;font-weight:bold;font-stretch:normal;text-align:center;line-height:100%;writing-mode:lr-tb;text-anchor:middle;fill:#000000;fill-opacity:1;fill-rule:nonzero;stroke:none;font-family:Impact;-inkscape-font-specification:Impact Bold"
           xml:space="preserve"><tspan
             style="font-size:200px;font-style:normal;font-variant:normal;font-weight:normal;font-stretch:normal;text-align:center;line-height:100%;writing-mode:lr-tb;text-anchor:middle;fill:#000000;font-family:Lein Bold;-inkscape-font-specification:'Lein Bold,'"
             y="372.33911"
             x="473.08698"
             id="tspan3787"
             sodipodi:role="line"><tspan
               id="tspan3789"
               style="font-size:200px;font-style:normal;font-variant:normal;font-weight:normal;font-stretch:normal;text-align:center;line-height:100%;writing-mode:lr-tb;text-anchor:middle;fill:#550000;font-family:Lein Bold;-inkscape-font-specification:'Lein Bold,'">M</tspan><tspan
               id="tspan3791"
               style="font-size:200px;font-style:normal;font-variant:normal;font-weight:normal;font-stretch:normal;text-align:center;line-height:100%;writing-mode:lr-tb;text-anchor:middle;fill:#ff6600;font-family:Lein Bold;-inkscape-font-specification:'Lein Bold,'"><tspan
   id="tspan3793"
   style="fill:#ffcc00">E</tspan>T</tspan><tspan
               id="tspan3795"
               style="font-size:200px;font-style:normal;font-variant:normal;font-weight:normal;font-stretch:normal;text-align:center;line-height:100%;writing-mode:lr-tb;text-anchor:middle;fill:#0066ff;font-family:Lein Bold;-inkscape-font-specification:'Lein Bold,'">A</tspan></tspan></text>
      </g>
      <path
         style="color:#000000;fill:#7f4040;fill-opacity:1;fill-rule:nonzero;stroke:none;stroke-width:0.10544282px;marker:none;visibility:visible;display:inline;overflow:visible;enable-background:accumulate"
         d="m 69.734998,58.575946 0,-3.171638 3.084203,0.03562 3.084202,0.03562 0.685379,0.297769 c 0.376958,0.163774 0.732827,0.295633 0.790821,0.293021 0.05799,-0.0026 0.520361,-0.150342 1.027483,-0.32829 1.749832,-0.614009 3.314678,-0.516616 4.993021,0.310759 0.880332,0.433978 2.001862,1.415084 2.389778,2.090559 l 0.185743,0.323432 -0.607515,0.228306 c -2.218768,0.833821 -6.976483,1.919346 -10.835466,2.472231 -1.070654,0.153394 -4.536941,0.582113 -4.718566,0.583603 -0.0435,3.57e-4 -0.07908,-1.426588 -0.07908,-3.17099 z"
         id="path3797" />
    </g>
    <g
       transform="translate(234,0.73468612)"
       id="g3799">
      <g
         transform="matrix(0.09247284,0,0,0.09247284,52.091739,33.966404)"
         id="g3801">
        <path
           sodipodi:type="inkscape:offset"
           inkscape:radius="3.0582964"
           inkscape:original="M 308 231.53125 C 301.73322 231.53139 295.73322 232.33764 290 233.9375 C 284.26657 235.4043 278.84782 237.54388 273.78125 240.34375 C 271.9145 238.87722 269.527 237.54388 266.59375 236.34375 C 264.06034 235.27722 260.86659 234.33139 257 233.53125 C 253.13327 232.73139 248.38119 232.34389 242.78125 232.34375 L 191 232.34375 L 191 301.9375 L 190.1875 372.34375 L 231.78125 372.34375 C 231.7812 368.87709 232.92079 365.93126 235.1875 363.53125 C 237.45411 360.99793 240.31453 359.75001 243.78125 359.75 C 247.24785 359.75001 250.13952 360.99793 252.40625 363.53125 C 254.80618 365.93126 255.99993 368.87709 256 372.34375 L 300 371.53125 C 299.99989 368.06459 301.13947 365.25834 303.40625 363.125 C 305.6728 360.85834 308.53321 359.75001 312 359.75 C 315.46654 359.75001 318.32695 360.85834 320.59375 363.125 C 322.99361 365.25834 324.18736 368.06459 324.1875 371.53125 L 376.78125 371.53125 L 377.59375 301.125 C 377.59356 291.52508 375.73314 282.52509 372 274.125 C 368.39982 265.59177 363.45399 258.20428 357.1875 251.9375 C 350.92067 245.53763 343.53317 240.53763 335 236.9375 C 326.59986 233.33764 317.59987 231.53139 308 231.53125 z M 457.46875 231.9375 C 447.86868 231.93764 438.78328 233.79806 430.25 237.53125 C 421.71663 241.13138 414.27497 246.13138 407.875 252.53125 C 401.60831 258.93136 396.60832 266.40427 392.875 274.9375 C 389.27499 283.33759 387.46875 292.33758 387.46875 301.9375 C 387.46875 311.67089 389.27499 320.81047 392.875 329.34375 C 396.60832 337.87712 401.60831 345.35003 407.875 351.75 C 414.27497 358.15001 421.71663 363.20418 430.25 366.9375 C 438.78328 370.5375 447.86868 372.34375 457.46875 372.34375 L 527.46875 372.34375 L 527.46875 326.9375 C 524.00194 326.93755 520.86236 325.79796 518.0625 323.53125 C 515.26237 321.1313 513.87487 318.21672 513.875 314.75 L 527.46875 314.75 L 527.65625 301.9375 C 527.6561 292.33758 525.79569 283.33759 522.0625 274.9375 C 518.46236 266.40427 513.46237 258.93136 507.0625 252.53125 C 500.79571 246.13138 493.40822 241.13138 484.875 237.53125 C 476.34157 233.79806 467.202 231.93764 457.46875 231.9375 z M 685.59375 231.9375 C 675.99368 231.93764 666.90828 233.79806 658.375 237.53125 C 649.84163 241.13138 642.39997 246.13138 636 252.53125 C 629.73331 258.93136 624.73332 266.40427 621 274.9375 C 617.39999 283.33759 615.59375 292.33758 615.59375 301.9375 C 615.59374 311.67089 617.39999 320.81047 621 329.34375 C 624.73332 337.87712 629.73331 345.35003 636 351.75 C 642.39997 358.15001 649.84163 363.20418 658.375 366.9375 C 666.90828 370.5375 675.99368 372.34375 685.59375 372.34375 L 755.1875 372.34375 L 755.78125 301.9375 C 755.7811 292.33758 753.92069 283.33759 750.1875 274.9375 C 746.58736 266.40427 741.58737 258.93136 735.1875 252.53125 C 728.92072 246.13138 721.53322 241.13138 713 237.53125 C 704.46657 233.79806 695.327 231.93764 685.59375 231.9375 z M 537.84375 232.53125 L 537.84375 311.53125 C 537.84375 320.19797 539.45624 328.33754 542.65625 335.9375 C 545.85624 343.4042 550.24373 349.93127 555.84375 355.53125 C 561.44372 361.13126 567.9708 365.55001 575.4375 368.75 C 583.03745 371.95 591.17702 373.53125 599.84375 373.53125 L 599.4375 305.75 L 594.4375 305.75 L 594.4375 299.34375 C 597.5041 299.34382 600.1166 298.34382 602.25 296.34375 C 604.5166 294.21049 605.65618 291.598 605.65625 288.53125 C 605.65618 285.46467 604.5166 282.93759 602.25 280.9375 C 600.1166 278.93759 597.5041 277.93759 594.4375 277.9375 L 594.4375 232.53125 L 537.84375 232.53125 z M 505.46875 282.9375 C 508.93529 282.93759 511.7957 284.07717 514.0625 286.34375 C 516.46237 288.6105 517.65611 291.47091 517.65625 294.9375 C 517.65611 298.40424 516.46237 301.35007 514.0625 303.75 C 511.7957 306.01673 508.93529 307.12507 505.46875 307.125 C 502.00196 307.12507 499.05613 306.01673 496.65625 303.75 C 494.38947 301.35007 493.24989 298.40424 493.25 294.9375 C 493.24989 291.47091 494.38947 288.6105 496.65625 286.34375 C 499.05613 284.07717 502.00196 282.93759 505.46875 282.9375 z M 673 313.34375 C 676.4666 313.34381 679.32701 314.53756 681.59375 316.9375 C 683.99368 319.20422 685.18743 322.06463 685.1875 325.53125 C 685.18743 328.99796 683.99368 331.94379 681.59375 334.34375 C 679.32701 336.61045 676.4666 337.75003 673 337.75 C 669.53327 337.75003 666.58744 336.61045 664.1875 334.34375 C 661.92078 331.94379 660.7812 328.99796 660.78125 325.53125 C 660.7812 322.06463 661.92078 319.20422 664.1875 316.9375 C 666.58744 314.53756 669.53327 313.34381 673 313.34375 z "
           xlink:href="#text4366"
           style="font-size:89.35980225px;font-style:normal;font-variant:normal;font-weight:bold;font-stretch:normal;text-align:center;line-height:100%;writing-mode:lr-tb;text-anchor:middle;fill:#000000;fill-opacity:1;fill-rule:nonzero;stroke:none;font-family:Impact;-inkscape-font-specification:Impact Bold"
           id="path3803"
           inkscape:href="#text4366"
           d="m 308,228.46875 c -6.50563,1.5e-4 -12.76051,0.83514 -18.75,2.5 -0.0225,0.006 -0.04,0.0255 -0.0625,0.0312 -5.3364,1.37052 -10.38886,3.35657 -15.1875,5.84375 -1.81866,-1.21342 -3.82702,-2.33143 -6.21875,-3.3125 -0.008,-0.004 -0.0229,0.004 -0.0312,0 -2.77974,-1.16765 -6.12938,-2.17316 -10.125,-3 -4.1616,-0.86086 -9.10277,-1.24986 -14.84375,-1.25 l -51.78125,0 a 3.0586023,3.0586023 0 0 0 -3.0625,3.0625 l 0,69.5625 0,0.0312 -0.8125,70.375 a 3.0586023,3.0586023 0 0 0 3.0625,3.09375 l 41.59375,0 a 3.0586023,3.0586023 0 0 0 3.0625,-3.0625 c -4e-5,-2.7964 0.80221,-4.85495 2.5625,-6.71875 a 3.0586023,3.0586023 0 0 0 0.0625,-0.0625 c 1.74685,-1.9524 3.57971,-2.74999 6.3125,-2.75 2.73265,10e-6 4.60607,0.80795 6.34375,2.75 a 3.0586023,3.0586023 0 0 0 0.125,0.125 c 1.87371,1.87377 2.68744,3.89164 2.6875,6.65625 a 3.0586023,3.0586023 0 0 0 3.125,3.0625 l 44,-0.8125 a 3.0586023,3.0586023 0 0 0 3,-3.0625 c -9e-5,-2.79638 0.77293,-4.62092 2.4375,-6.1875 a 3.0586023,3.0586023 0 0 0 0.0625,-0.0625 c 1.70932,-1.7094 3.62253,-2.46874 6.4375,-2.46875 2.81467,10e-6 4.72786,0.75922 6.4375,2.46875 a 3.0586023,3.0586023 0 0 0 0.125,0.125 c 1.78091,1.58313 2.56239,3.36036 2.5625,6.125 a 3.0586023,3.0586023 0 0 0 3.0625,3.0625 l 52.59375,0 a 3.0586023,3.0586023 0 0 0 3.0625,-3.03125 l 0.8125,-70.40625 a 3.0586023,3.0586023 0 0 0 0,-0.0312 c -2e-4,-9.97084 -1.95342,-19.40927 -5.84375,-28.1875 -0.009,-0.0217 -0.0221,-0.0408 -0.0312,-0.0625 -3.73623,-8.8336 -8.88977,-16.53758 -15.40625,-23.0625 -0.0104,-0.0106 -0.0209,-0.0207 -0.0312,-0.0312 -6.53729,-6.66765 -14.26493,-11.91432 -23.125,-15.65625 -0.009,-0.004 -0.0222,0.004 -0.0312,0 -8.77898,-3.7578 -18.21427,-5.6561 -28.1875,-5.65625 z m 149.46875,0.40625 c -9.98508,1.5e-4 -19.49227,1.94848 -28.40625,5.84375 -0.009,0.004 -0.0223,-0.004 -0.0312,0 -8.87018,3.74605 -16.64409,8.98794 -23.3125,15.65625 a 3.0586023,3.0586023 0 0 0 -0.0312,0.0312 c -6.53035,6.66938 -11.75257,14.46131 -15.625,23.3125 -3.76567,8.78663 -5.65625,18.23521 -5.65625,28.21875 0,10.11175 1.89465,19.67745 5.65625,28.59375 a 3.0586023,3.0586023 0 0 0 0,0.0312 c 3.87243,8.85134 9.09463,16.64324 15.625,23.3125 a 3.0586023,3.0586023 0 0 0 0.0312,0.0312 c 6.66888,6.66892 14.4487,11.96587 23.3125,15.84375 a 3.0586023,3.0586023 0 0 0 0.0312,0 c 8.91203,3.75979 18.42257,5.65625 28.40625,5.65625 l 70,0 a 3.0586023,3.0586023 0 0 0 3.0625,-3.0625 l 0,-45.40625 a 3.0586023,3.0586023 0 0 0 -3.0625,-3.0625 c -2.78739,4e-5 -5.12435,-0.85307 -7.4375,-2.71875 -0.006,-0.005 -0.0255,0.005 -0.0312,0 -1.22264,-1.06232 -1.96448,-2.16817 -2.4375,-3.34375 l 9.90625,0 a 3.0586023,3.0586023 0 0 0 3.0625,-3.03125 l 0.1875,-12.8125 a 3.0586023,3.0586023 0 0 0 0,-0.0312 c -1.6e-4,-9.97085 -1.95337,-19.40926 -5.84375,-28.1875 -0.009,-0.0216 -0.0221,-0.0409 -0.0312,-0.0625 -3.738,-8.8378 -8.9466,-16.62578 -15.59375,-23.28125 -0.0104,-0.0106 -0.0209,-0.0207 -0.0312,-0.0312 -6.53725,-6.66765 -14.26488,-11.91432 -23.125,-15.65625 -0.009,-0.004 -0.0223,0.004 -0.0312,0 -8.91859,-3.89718 -18.48099,-5.8436 -28.59375,-5.84375 z m 228.125,0 c -9.98508,1.5e-4 -19.49227,1.94848 -28.40625,5.84375 -0.009,0.004 -0.0223,-0.004 -0.0312,0 -8.87018,3.74605 -16.64409,8.98794 -23.3125,15.65625 a 3.0586023,3.0586023 0 0 0 -0.0312,0.0312 c -6.53035,6.66938 -11.75257,14.46131 -15.625,23.3125 -3.76567,8.78663 -5.65625,18.23521 -5.65625,28.21875 -10e-6,10.11175 1.89465,19.67745 5.65625,28.59375 a 3.0586023,3.0586023 0 0 0 0,0.0312 c 3.87243,8.85134 9.09463,16.64324 15.625,23.3125 a 3.0586023,3.0586023 0 0 0 0.0312,0.0312 c 6.66888,6.66892 14.4487,11.96587 23.3125,15.84375 a 3.0586023,3.0586023 0 0 0 0.0312,0 c 8.91203,3.75979 18.42257,5.65625 28.40625,5.65625 l 69.59375,0 A 3.0586023,3.0586023 0 0 0 758.25,372.375 l 0.59375,-70.40625 a 3.0586023,3.0586023 0 0 0 0,-0.0312 C 758.84359,291.96665 756.89038,282.52824 753,273.75 c -0.009,-0.0216 -0.0221,-0.0409 -0.0312,-0.0625 -3.738,-8.8378 -8.9466,-16.62578 -15.59375,-23.28125 -0.0104,-0.0106 -0.0209,-0.0207 -0.0312,-0.0312 -6.53725,-6.66766 -14.26488,-11.91432 -23.125,-15.65625 -0.009,-0.004 -0.0223,0.004 -0.0312,0 -8.91859,-3.89718 -18.48099,-5.8436 -28.59375,-5.84375 z m -147.75,0.59375 a 3.0586023,3.0586023 0 0 0 -3.0625,3.0625 l 0,79 c 0,9.04606 1.70202,17.61267 5.0625,25.59375 a 3.0586023,3.0586023 0 0 0 0,0.0312 c 3.3445,7.80388 7.96831,14.65585 13.84375,20.53125 5.87136,5.87141 12.72074,10.52766 20.53125,13.875 a 3.0586023,3.0586023 0 0 0 0.0312,0 c 7.98763,3.36324 16.55503,5.03125 25.59375,5.03125 A 3.0586023,3.0586023 0 0 0 602.90625,373.5 L 602.5,305.71875 a 3.0586023,3.0586023 0 0 0 -3.0625,-3.03125 l -1.9375,0 0,-0.625 c 2.55886,-0.52574 4.92131,-1.6977 6.84375,-3.5 2.8015,-2.6367 4.37491,-6.20691 4.375,-10.03125 -9e-5,-3.79393 -1.57356,-7.3068 -4.375,-9.8125 -0.0215,-0.0202 -0.0409,-0.0425 -0.0625,-0.0625 -1.9104,-1.76841 -4.25112,-2.91761 -6.78125,-3.4375 l 0,-42.6875 a 3.0586023,3.0586023 0 0 0 -3.0625,-3.0625 l -56.59375,0 z M 505.46875,286 c 2.79633,7e-5 4.71792,0.78059 6.4375,2.5 a 3.0586023,3.0586023 0 0 0 0.0625,0.0625 c 1.83423,1.73248 2.62489,3.61044 2.625,6.375 -1.1e-4,2.76475 -0.81388,4.78258 -2.6875,6.65625 -1.70964,1.70959 -3.62287,2.46881 -6.4375,2.46875 -2.78087,6e-5 -4.8206,-0.76227 -6.65625,-2.46875 -1.71633,-1.84573 -2.50009,-3.89361 -2.5,-6.65625 -9e-5,-2.76058 0.76333,-4.67241 2.4375,-6.375 0.0113,-0.0106 0.02,-0.0207 0.0312,-0.0312 0.0109,-0.011 0.0203,-0.0203 0.0312,-0.0312 1.84569,-1.71617 3.89345,-2.49993 6.65625,-2.5 z M 673,316.40625 c 2.76453,5e-5 4.64253,0.79072 6.375,2.625 a 3.0586023,3.0586023 0 0 0 0.125,0.125 c 1.83426,1.73245 2.62494,3.61044 2.625,6.375 -6e-5,2.76467 -0.81381,4.78254 -2.6875,6.65625 -1.7195,1.71947 -3.64115,2.50002 -6.4375,2.5 -2.76267,2e-5 -4.8105,-0.78372 -6.65625,-2.5 -1.7163,-1.84578 -2.50004,-3.89361 -2.5,-6.65625 -4e-5,-2.79636 0.78053,-4.71803 2.5,-6.4375 1.87368,-1.87368 3.89156,-2.68745 6.65625,-2.6875 z" />
        <text
           xml:space="preserve"
           style="font-size:197.83482361px;font-style:normal;font-variant:normal;font-weight:bold;font-stretch:normal;text-align:center;line-height:100%;writing-mode:lr-tb;text-anchor:middle;fill:#000000;fill-opacity:1;fill-rule:nonzero;stroke:none;font-family:Impact;-inkscape-font-specification:Impact Bold"
           x="473.08698"
           y="372.33911"
           id="text3805"
           sodipodi:linespacing="100%"><tspan
             sodipodi:role="line"
             id="tspan3807"
             x="473.08698"
             y="372.33911"
             style="font-size:200px;font-style:normal;font-variant:normal;font-weight:normal;font-stretch:normal;text-align:center;line-height:100%;writing-mode:lr-tb;text-anchor:middle;fill:#000000;font-family:Lein Bold;-inkscape-font-specification:'Lein Bold,'"><tspan
               style="font-size:200px;font-style:normal;font-variant:normal;font-weight:normal;font-stretch:normal;text-align:center;line-height:100%;writing-mode:lr-tb;text-anchor:middle;fill:#550000;font-family:Lein Bold;-inkscape-font-specification:'Lein Bold,'"
               id="tspan3809">M</tspan><tspan
               style="font-size:200px;font-style:normal;font-variant:normal;font-weight:normal;font-stretch:normal;text-align:center;line-height:100%;writing-mode:lr-tb;text-anchor:middle;fill:#ff6600;font-family:Lein Bold;-inkscape-font-specification:'Lein Bold,'"
               id="tspan3811"><tspan
   style="fill:#ffcc00"
   id="tspan3813">E</tspan>T</tspan><tspan
               style="font-size:200px;font-style:normal;font-variant:normal;font-weight:normal;font-stretch:normal;text-align:center;line-height:100%;writing-mode:lr-tb;text-anchor:middle;fill:#0066ff;font-family:Lein Bold;-inkscape-font-specification:'Lein Bold,'"
               id="tspan3815">A</tspan></tspan></text>
      </g>
      <path
         id="path3817"
         d="m 69.734998,58.575946 0,-3.171638 3.084203,0.03562 3.084202,0.03562 0.685379,0.297769 c 0.376958,0.163774 0.732827,0.295633 0.790821,0.293021 0.05799,-0.0026 0.520361,-0.150342 1.027483,-0.32829 1.749832,-0.614009 3.314678,-0.516616 4.993021,0.310759 0.880332,0.433978 2.001862,1.415084 2.389778,2.090559 l 0.185743,0.323432 -0.607515,0.228306 c -2.218768,0.833821 -6.976483,1.919346 -10.835466,2.472231 -1.070654,0.153394 -4.536941,0.582113 -4.718566,0.583603 -0.0435,3.57e-4 -0.07908,-1.426588 -0.07908,-3.17099 z"
         style="color:#000000;fill:#7f4040;fill-opacity:1;fill-rule:nonzero;stroke:none;stroke-width:0.10544282px;marker:none;visibility:visible;display:inline;overflow:visible;enable-background:accumulate" />
    </g>
  </g>
</svg>
